<?xml version="1.0" standalone="no"?>
<svg width="15cm" height="15cm" viewBox="23 65 88 145" xmlns:xlink="http://www.w3.org/1999/xlink" xmlns="http://www.w3.org/2000/svg">

<rect x="23" y="65" width="88" height="145" style="fill:rgb(0,0,0);stroke-width:0;stroke:rgb(0,0,0)"/>

<polyline fill="none" style="stroke:rgb(0.0%,50.0%,40.0%);stroke-width:0.5" points="
86.413769,156.605847
89.774934,158.446447
90.059298,162.439735
90.046182,166.499675
90.316935,170.536285
91.020226,174.534867
90.739268,178.564693
89.588236,182.430480
87.594500,185.914377
84.873070,188.818663
81.311479,190.703598
77.823544,192.779901
74.275678,194.749332
70.767051,196.791868
66.916541,197.991257
63.025753,199.122000
59.374408,198.013144
56.795587,194.909551
55.465884,191.092267
53.567185,187.514494
52.943688,183.551812
52.046238,179.619370
53.046581,176.175282
55.993265,173.522097
58.337779,170.268205
61.745576,168.075808
65.118133,165.824781
68.700077,163.928582
72.371757,162.229666
76.251704,161.113202
79.361622,158.599102
82.454043,156.173813
86.413769,156.605847"/>

<polyline fill="none" style="stroke:rgb(1.6666666666666667%,50.83333333333333%,40.0%);stroke-width:0.5" points="
89.623023,156.967738
91.439620,160.520507
91.566167,164.495523
91.050553,168.469869
91.053738,172.488605
91.053569,176.507341
90.326836,180.428348
87.145921,185.562850
84.424606,188.255457
81.311479,190.703598
76.193101,194.219085
72.612764,196.030620
66.811221,197.584815
63.008332,198.042259
59.644207,197.580444
57.428471,196.142491
55.465884,191.092267
54.053120,187.359747
53.091013,183.523608
52.466136,179.617804
52.424912,176.893133
54.819692,173.752240
57.714062,170.966897
61.860040,168.251870
65.286485,166.108608
68.794658,164.116074
72.371757,162.229666
76.024367,160.656716
79.361622,158.599102
82.558035,156.549683
85.817744,155.968635
89.623023,156.967738"/>

<polyline fill="none" style="stroke:rgb(3.3333333333333335%,51.66666666666666%,40.0%);stroke-width:0.5" points="
88.149563,158.823997
89.922835,160.880358
90.246491,164.478739
90.241230,168.439327
90.243738,172.488906
90.218269,176.419141
89.446719,180.129038
87.051138,185.489268
84.424606,188.255457
81.311479,190.703598
76.193101,194.219085
72.528219,195.806006
66.772184,197.378476
63.020496,197.652493
59.970916,196.941409
55.860461,190.948457
54.808856,187.168800
54.708378,183.077303
52.585698,179.607565
52.656777,176.954194
55.005091,172.671554
58.069264,170.120057
61.545175,168.104022
65.017544,166.081782
68.794658,164.116074
72.577711,162.696127
76.337423,161.203079
79.518518,158.854792
82.731807,157.092039
85.638523,157.577610
88.149563,158.823997"/>

<polyline fill="none" style="stroke:rgb(5.0%,52.49999999999999%,40.0%);stroke-width:0.5" points="
86.686933,160.725261
89.413873,164.583233
90.091237,168.440383
90.213738,172.488808
90.039654,176.396993
89.109576,180.003294
86.278488,184.971668
83.870876,187.623891
80.736520,189.861395
75.513700,193.017960
72.141814,194.862780
66.650305,196.215883
63.239490,196.109537
60.747027,195.458640
57.028196,190.477376
55.920952,186.922977
54.708378,183.077303
53.577975,179.372219
54.816843,172.739019
56.496951,169.086042
59.124768,166.230105
63.124171,165.862363
66.981628,164.742760
72.680004,163.009647
76.731512,162.141539
80.515770,160.868049
83.000422,160.164604
86.686933,160.725261"/>

<polyline fill="none" style="stroke:rgb(6.666666666666667%,53.33333333333332%,40.0%);stroke-width:0.5" points="
88.284411,160.356975
90.057778,163.645614
90.390547,167.559987
91.041441,171.446968
91.049301,175.402757
90.259220,179.234737
88.486505,182.758085
86.360853,186.066012
83.282041,188.513008
80.015049,190.721889
76.979971,193.233981
72.064593,194.635665
66.575373,195.198813
63.359504,195.096787
57.818637,190.114632
56.847850,186.674436
55.729681,182.726675
54.076787,179.276078
55.298501,172.906438
56.781692,169.252317
57.916384,166.802908
61.268085,165.008539
65.193213,164.661032
69.013749,163.693830
72.680004,163.009647
76.731512,162.141539
80.576232,161.069153
83.029484,160.432896
88.284411,160.356975"/>

<polyline fill="none" style="stroke:rgb(8.333333333333332%,54.16666666666665%,40.0%);stroke-width:0.5" points="
87.178582,161.960399
88.932744,164.061103
90.271640,167.576105
90.801756,171.456573
90.332593,175.334027
89.890139,179.108728
88.486505,182.758085
86.360853,186.066012
83.716365,188.492157
79.817650,190.421200
76.411295,192.043232
71.856467,193.575910
66.576885,194.059048
63.893981,193.663330
59.422876,189.236421
58.304721,186.208109
57.005339,182.285290
56.178294,178.933384
56.282844,173.173565
57.308527,169.469832
58.274920,167.072752
62.215478,164.448705
66.134110,163.749799
69.908338,162.511980
73.658622,161.178711
77.471679,160.082283
81.443545,159.937359
87.178582,161.960399"/>

<polyline fill="none" style="stroke:rgb(10.0%,54.999999999999986%,40.0%);stroke-width:0.5" points="
86.431515,160.624675
88.932744,164.061103
90.067122,167.623647
90.201975,171.471537
90.394885,175.522746
90.178602,179.480640
88.854476,183.222209
86.499143,186.395557
83.522017,188.189216
79.764617,190.313557
76.342861,191.876751
71.837796,193.487868
68.332928,194.066605
64.354528,194.055843
60.781262,192.835369
59.579176,189.147467
58.848775,186.038599
57.520814,182.124585
56.533490,178.875955
56.212751,173.752054
56.892454,169.832131
57.580348,165.913631
59.394962,162.496524
63.216593,162.449086
67.075684,163.276753
69.908338,162.511980
73.755037,161.494296
77.550217,160.494789
81.443545,159.937359
86.431515,160.624675"/>

<polyline fill="none" style="stroke:rgb(11.666666666666666%,55.833333333333314%,40.0%);stroke-width:0.5" points="
85.744010,161.786382
88.319759,164.436887
89.861779,167.667239
90.908530,172.978436
90.824917,176.944500
89.974610,179.431166
88.222046,182.878088
85.994457,185.882369
83.507017,188.163235
78.003903,191.327974
74.285846,192.787249
71.837796,193.487868
68.322016,193.736953
64.649455,192.894115
62.215931,191.516959
60.329545,188.847075
58.848775,186.038599
57.520814,182.124585
56.533490,178.875955
54.546563,174.062541
53.949813,170.142532
54.509410,166.195647
56.048987,162.543052
59.189527,160.144885
63.101610,159.617999
66.950754,160.634047
70.918606,160.953132
74.881694,160.574658
78.824270,159.958677
81.441101,160.087321
85.744010,161.786382"/>

<polyline fill="none" style="stroke:rgb(13.333333333333334%,56.66666666666664%,40.0%);stroke-width:0.5" points="
85.662031,161.911993
89.433090,166.517280
90.580240,173.011817
90.795419,176.939034
89.974610,179.431166
87.993872,182.733751
85.776016,185.676791
83.315529,187.894498
77.809272,190.922242
74.085466,192.095975
68.380396,192.898992
64.827822,192.353202
62.534165,191.118938
60.458828,188.771046
59.152620,185.909848
57.721274,182.062020
56.787808,178.785278
54.774034,173.986527
53.096466,167.918935
54.525527,164.244658
57.149092,161.236387
60.482993,159.154851
64.382676,159.619783
68.210756,160.678742
71.554333,160.701253
74.897910,160.723764
78.849504,160.287666
81.377076,160.380408
85.662031,161.911993"/>

<polyline fill="none" style="stroke:rgb(15.0%,57.49999999999997%,40.0%);stroke-width:0.5" points="
89.296430,166.579114
89.938335,169.795466
90.580240,173.011817
90.468726,176.892484
89.810890,179.356361
87.993872,182.733751
85.753678,185.656765
83.075303,187.549989
77.571515,190.338866
73.933274,191.361629
68.389597,191.819049
65.175119,191.204830
60.743808,188.552011
58.406753,185.086872
57.306917,181.259988
55.959607,177.496120
53.955744,174.034703
52.282137,170.421157
53.057199,166.567624
55.056436,163.103005
57.061366,159.641674
59.022988,156.159137
60.557259,152.485487
63.923051,150.581282
67.847244,150.315861
70.377576,153.122250
73.512269,155.546533
76.720703,157.901759
80.352744,159.469841
84.187653,160.576564
89.296430,166.579114"/>

<polyline fill="none" style="stroke:rgb(16.666666666666664%,58.3333333333333%,40.0%);stroke-width:0.5" points="
87.685764,164.375384
89.269373,166.592072
90.930083,171.614475
91.057047,175.628296
90.761980,179.623322
89.149124,183.280993
86.702898,186.454290
83.361848,188.645247
79.611751,190.091556
75.861573,191.537450
71.905758,192.057736
67.903994,191.835815
65.261300,190.980838
60.844449,188.440821
57.868988,185.473785
55.751816,182.079458
54.051196,178.450794
52.951976,174.606418
52.820675,170.412523
53.871268,166.874474
55.836589,163.551724
57.541162,159.889105
58.790592,155.769755
60.274023,152.041864
62.762649,148.952846
66.452601,147.458738
70.156020,148.216896
72.371838,151.550907
75.766578,153.679131
78.816100,156.261245
81.664120,159.096406
83.962867,160.895079
87.685764,164.375384"/>

<polyline fill="none" style="stroke:rgb(18.333333333333332%,59.166666666666636%,40.0%);stroke-width:0.5" points="
87.063360,162.966366
88.913433,166.750882
89.886730,171.721647
89.712028,175.523280
89.022271,179.161809
87.950635,182.538735
85.476201,185.137158
82.494501,187.102921
79.111874,188.935431
75.517386,190.294386
71.875481,190.708127
68.183905,190.331642
62.226994,186.989584
60.090208,183.944333
58.454804,180.782486
57.358250,177.275548
56.121760,173.822911
54.840134,170.288776
54.757814,167.147924
56.568265,164.070278
58.910730,160.423044
59.692507,155.989330
60.346318,151.191053
62.641769,147.940617
66.233409,146.194924
70.238507,146.088143
73.627123,148.150184
76.901305,150.521197
79.698402,153.423239
81.999946,156.713096
84.448152,159.908991
87.063360,162.966366"/>

<polyline fill="none" style="stroke:rgb(20.0%,59.999999999999964%,40.0%);stroke-width:0.5" points="
86.911878,163.063583
88.630664,166.851030
89.587561,171.743959
89.712028,175.523280
88.847834,179.117405
87.504539,182.291763
85.260636,184.887319
82.330284,186.816713
78.921883,188.527511
75.396622,189.768079
71.876945,190.198139
68.291952,189.956963
65.297225,189.086404
62.226994,186.989584
59.581888,183.678659
58.055471,180.016411
56.910615,176.207219
56.121760,173.822911
55.342116,170.198742
55.448580,167.350326
56.722851,164.162471
58.740498,160.364868
59.366488,155.938227
60.346318,151.191053
62.778098,148.100348
66.262790,146.311268
70.238507,146.088143
76.657659,150.786131
79.426208,153.658772
82.916435,157.459266
85.296224,160.636329
86.911878,163.063583"/>

<polyline fill="none" style="stroke:rgb(21.666666666666664%,60.83333333333329%,40.0%);stroke-width:0.5" points="
86.465511,161.120223
87.948741,164.805898
89.140216,171.792757
89.233280,175.490152
88.847834,179.117405
86.298492,184.306027
82.315113,186.790832
78.776819,188.165535
75.296993,189.360078
71.863949,189.958540
68.488160,189.140770
65.922938,187.890685
63.103715,186.002903
60.332047,183.238066
58.530149,179.830164
57.054997,176.166764
56.810303,170.136348
56.981152,167.641134
57.537461,164.465108
58.740498,160.364868
59.866066,156.040353
61.247467,151.600944
63.051178,148.419418
65.497403,146.446521
69.292026,145.112681
73.035915,146.209021
75.669303,149.268813
78.976135,151.604796
81.395703,154.847205
83.603230,158.236203
86.465511,161.120223"/>

<polyline fill="none" style="stroke:rgb(23.333333333333332%,61.66666666666663%,40.0%);stroke-width:0.5" points="
86.415441,161.153282
88.375641,164.167909
89.043519,168.108332
89.140216,171.792757
88.605763,175.437203
88.204435,178.972714
85.845941,183.868090
82.232368,186.630989
79.541664,188.013807
75.258925,189.184234
71.886096,189.238892
68.600688,188.767613
65.996565,187.760002
63.180829,185.910968
60.548460,183.076620
58.931783,180.659993
57.613634,176.053613
56.870298,170.137058
57.433247,164.931643
59.070812,161.291091
59.910808,157.403298
60.390109,153.439521
61.919064,149.793601
64.695032,146.971415
69.265107,145.891495
72.713043,146.678450
75.549141,149.402828
78.643210,151.950569
81.395703,154.847205
83.603230,158.236203
86.415441,161.153282"/>

<polyline fill="none" style="stroke:rgb(24.999999999999996%,62.49999999999996%,40.0%);stroke-width:0.5" points="
85.960222,160.411115
88.375641,164.167909
89.348314,167.549968
89.525787,171.478056
89.032901,175.431338
88.414962,179.363211
86.558289,182.868153
83.735726,185.663634
80.318875,187.714139
76.522926,188.882700
71.895626,189.119285
68.696980,188.420744
66.317059,187.148960
63.594108,185.396486
60.931239,182.787081
59.363736,180.450722
57.905819,177.174211
56.957981,173.315617
56.870298,170.137058
57.664969,164.994132
59.042338,161.281644
59.910808,157.403298
60.792702,153.558873
62.215039,149.998462
64.933694,147.352608
68.661595,145.605890
72.456585,145.961522
75.684719,148.306957
78.580038,151.058564
81.349658,153.921644
83.470192,157.306276
85.960222,160.411115"/>

<polyline fill="none" style="stroke:rgb(26.666666666666668%,63.333333333333286%,40.0%);stroke-width:0.5" points="
86.425981,161.098146
88.375641,164.167909
89.081667,167.592381
89.225921,171.469337
89.043486,176.612124
88.165364,180.532666
86.346460,182.700830
83.438649,185.286621
80.040076,187.050376
76.370088,187.965359
72.003107,187.984385
69.136522,187.272023
66.807659,186.289148
64.378943,184.410773
61.727384,182.058107
60.104288,180.054379
58.642681,176.918417
57.492643,173.239906
57.170100,170.144113
58.188440,165.126695
59.099875,161.298659
60.229761,157.487572
61.642686,153.854220
63.010791,150.478349
65.441624,148.021142
68.843703,146.363651
72.456585,145.961522
77.376930,147.932403
79.235987,151.494900
81.927294,154.507711
83.704571,158.121594
86.425981,161.098146"/>

<polyline fill="none" style="stroke:rgb(28.333333333333332%,64.16666666666661%,40.0%);stroke-width:0.5" points="
86.284896,160.676284
88.375641,164.167909
89.081667,167.592381
89.225921,171.469337
88.984009,176.604247
87.621301,180.216392
85.928148,182.313787
82.892376,184.461045
79.682592,186.224865
76.303923,187.611793
72.003107,187.984385
69.136522,187.272023
66.807659,186.289148
64.378943,184.410773
61.727384,182.058107
60.104288,180.054379
57.256153,174.783653
56.949417,170.853447
57.353150,166.938858
58.713261,163.223948
59.746667,159.420679
60.695799,155.594658
61.471818,151.722606
63.175416,148.165551
65.691011,145.295091
69.509593,145.616867
72.405580,146.257062
77.025437,148.301732
79.235987,151.494900
81.852462,154.557710
83.704571,158.121594
86.284896,160.676284"/>

<polyline fill="none" style="stroke:rgb(30.0%,64.99999999999994%,40.0%);stroke-width:0.5" points="
88.438130,162.795407
89.258691,166.665870
89.735621,170.595723
89.174757,174.514547
87.621301,180.216392
85.826560,182.203431
82.876344,184.435688
79.598480,186.032523
76.144428,186.909700
72.043473,187.235575
69.222857,186.953770
64.617504,184.753942
61.712251,182.059734
60.104288,180.054379
57.917217,174.585938
56.949417,170.853447
57.207188,167.403878
58.483161,163.652487
59.184632,159.759943
60.451331,156.007828
61.888871,151.890610
63.821379,148.698871
66.490137,147.171008
69.290623,147.131106
71.982112,147.664626
76.145352,149.403302
79.032891,151.672417
81.138945,153.568217
83.524044,156.697778
85.998462,159.773556
88.438130,162.795407"/>

<polyline fill="none" style="stroke:rgb(31.666666666666664%,65.83333333333327%,40.0%);stroke-width:0.5" points="
87.298530,160.068350
90.034162,162.888396
91.332142,166.650821
91.692540,170.610880
89.930163,174.186628
88.946392,178.032364
87.542832,180.172332
85.686896,182.046622
82.751414,184.230768
79.577870,185.976174
76.238409,186.928236
72.043617,187.205575
69.260472,186.808583
64.625723,185.003708
61.847759,181.941339
60.596386,179.766735
58.177161,174.513487
57.757994,170.810318
58.006616,167.532184
58.889931,163.757075
59.651981,159.869181
60.622142,156.064586
62.297666,152.078708
63.892429,148.043255
66.576211,147.551222
69.211852,147.756004
71.779284,148.292612
75.727303,150.061489
78.593636,152.242541
80.972855,153.741140
84.495800,157.235972
87.298530,160.068350"/>

<polyline fill="none" style="stroke:rgb(33.33333333333333%,66.6666666666666%,40.0%);stroke-width:0.5" points="
89.591147,161.310517
92.107548,164.369440
94.546466,167.456299
94.153940,171.277522
92.199865,174.730314
90.223053,178.175963
87.427120,180.954744
82.669067,184.105399
79.486695,185.722182
76.145674,186.396259
72.054001,186.905755
69.260472,186.808583
65.225030,184.216405
62.328881,181.535606
60.045069,179.201576
58.590345,175.523677
57.787988,170.809705
58.006616,167.532184
58.738660,163.735392
59.569675,159.860753
60.735706,156.103354
62.408511,152.124675
64.319160,148.585214
67.402546,147.006520
71.370222,146.952383
75.277126,147.633313
78.195141,150.315903
81.235516,152.835034
84.088447,155.596903
86.952582,158.347206
89.591147,161.310517"/>

<polyline fill="none" style="stroke:rgb(35.0%,67.49999999999994%,40.0%);stroke-width:0.5" points="
89.218772,157.707292
92.018759,160.535556
94.450205,163.687098
96.284652,167.145915
95.507393,170.991273
93.383847,174.354383
90.976732,177.505520
88.722106,180.778672
85.524902,183.136829
82.061038,185.108856
78.304497,186.436755
74.374844,186.999307
69.633534,185.828041
65.666123,183.609989
62.798096,181.116145
61.137880,178.576542
59.742213,175.187328
58.897140,170.769787
58.990478,167.640309
60.182854,164.135686
61.629348,160.507361
62.758809,156.768157
64.146943,152.782190
64.290501,148.387412
66.833177,145.868035
70.746369,145.109966
74.720415,144.948130
78.509824,145.969083
80.892387,149.144742
83.610016,152.042071
86.404790,154.884333
89.218772,157.707292"/>

<polyline fill="none" style="stroke:rgb(36.666666666666664%,68.33333333333327%,40.0%);stroke-width:0.5" points="
88.343152,158.571111
91.090558,161.387427
93.713188,164.203195
95.539132,167.223820
95.208427,170.852217
92.910728,174.036557
90.854600,177.418441
88.617449,180.671279
85.191373,182.602409
81.811359,184.596534
78.281838,186.349666
74.374844,186.999307
69.778830,185.498812
65.938778,183.214954
62.933171,180.997174
60.790787,178.372116
58.768311,174.892445
57.989121,170.934790
58.270301,166.921880
59.590815,163.159798
60.996652,159.376756
62.215844,155.529814
62.941461,151.585113
63.841812,147.732088
66.902081,146.001269
70.793337,145.768092
74.418750,146.538473
77.144925,148.015684
79.845262,150.132230
82.734315,152.905764
85.550059,155.726610
88.343152,158.571111"/>

<polyline fill="none" style="stroke:rgb(38.33333333333333%,69.1666666666666%,40.0%);stroke-width:0.5" points="
87.492756,159.459488
90.578827,161.935080
93.713188,164.203195
96.871998,167.705082
96.219870,171.546392
93.506421,174.392507
91.037710,177.461628
88.617449,180.671279
85.546939,183.016398
81.730195,184.435924
78.112637,185.774111
74.396928,186.190162
69.803557,185.444145
66.532853,183.919358
63.300163,181.617564
60.708501,178.672553
58.966163,174.822122
58.049010,170.931159
58.270301,166.921880
59.462864,163.439682
61.138111,159.842310
62.392632,156.071946
62.941831,152.137055
63.247061,148.173624
65.479039,145.208149
69.352706,145.613133
73.979853,147.490872
76.437790,149.058495
78.963262,151.154262
81.714423,153.922268
84.533107,156.746117
87.492756,159.459488"/>

<polyline fill="none" style="stroke:rgb(40.0%,69.99999999999993%,40.0%);stroke-width:0.5" points="
90.436560,161.127260
93.916316,163.128024
97.426295,165.038587
98.867868,168.488452
97.703170,172.319345
95.598191,175.690019
92.278162,177.916463
88.454182,180.495504
85.325586,182.624613
81.730195,184.435924
78.348498,185.733530
74.396928,186.190162
69.952916,184.988013
66.638100,183.737636
63.519613,181.371112
60.881411,178.553479
58.966163,174.822122
58.138647,170.923082
58.769938,167.024144
60.101769,163.700249
61.612299,160.030047
62.538847,156.105422
62.944560,151.525608
62.999008,147.512563
64.276437,143.837935
67.617426,145.212313
73.572065,148.293174
75.968232,149.718486
78.705817,151.485366
81.477282,153.123896
84.407477,155.866626
87.274194,158.672200
90.436560,161.127260"/>

<polyline fill="none" style="stroke:rgb(41.666666666666664%,70.83333333333326%,40.0%);stroke-width:0.5" points="
91.808627,161.194163
95.683902,161.400357
99.320011,162.190950
100.716040,165.800531
99.989565,169.628732
98.585674,173.322561
95.991517,176.212512
92.586569,178.223291
89.261564,180.357453
85.863252,182.379772
82.474433,184.417914
78.807976,185.786901
74.416440,186.011287
70.045885,184.702783
66.766831,183.500304
63.854339,181.790444
60.812454,179.292124
59.052641,175.807075
58.157145,171.968806
58.067782,168.039098
58.839474,164.171918
60.366322,160.533105
61.757891,156.863984
61.938581,152.925072
61.296791,149.053823
60.289215,145.276993
62.475279,142.377373
66.240683,142.961719
69.096598,145.651263
73.446501,148.497565
75.574516,150.321233
78.336318,152.068080
80.753392,154.042883
83.857010,156.500649
87.274194,158.672200
91.808627,161.194163"/>

<polyline fill="none" style="stroke:rgb(43.33333333333333%,71.66666666666659%,40.0%);stroke-width:0.5" points="
87.536775,158.441968
91.303853,159.748088
95.288238,159.947555
98.631400,161.587875
99.817684,165.846137
99.555256,169.510964
98.248683,173.126365
95.695924,175.873364
92.429833,177.967491
89.086055,180.077998
85.476488,182.869525
82.448426,184.363843
78.788798,185.698975
74.438903,185.802502
70.045885,184.702783
66.779698,183.473203
64.010101,181.569906
61.223237,178.941796
59.389362,175.679762
58.424584,171.931773
58.306980,168.058676
59.011959,164.223375
60.636865,158.763465
60.937715,154.789088
60.434835,150.831596
59.624227,146.945046
60.788000,143.246093
65.846883,143.703433
69.077870,145.674699
73.318856,148.664312
75.502881,150.417504
78.131005,152.363762
80.753392,154.042883
84.048875,156.492615
87.536775,158.441968"/>

<polyline fill="none" style="stroke:rgb(44.99999999999999%,72.49999999999991%,40.0%);stroke-width:0.5" points="
87.598841,158.305412
90.868774,159.685225
94.868637,159.295108
98.257636,161.042681
99.649256,164.749434
99.290637,169.457354
98.534467,172.724939
96.928143,176.377542
93.457415,178.265928
89.662334,179.514255
86.509169,181.996397
83.103918,184.142314
78.725237,185.223536
74.507792,185.176281
70.161875,184.362038
67.061918,182.978215
64.381823,181.098966
61.825489,178.446336
59.992177,175.411507
59.018206,171.844539
58.875749,168.095936
59.304799,164.288435
60.531212,158.309449
60.672656,154.333973
59.671181,150.442290
58.944886,146.476960
59.919475,142.754191
63.597483,142.961759
68.530300,146.463054
72.932896,149.235801
75.210686,150.798322
77.858497,152.758907
80.509723,154.455774
84.161375,156.315296
87.598841,158.305412"/>

<polyline fill="none" style="stroke:rgb(46.666666666666664%,73.33333333333326%,40.0%);stroke-width:0.5" points="
87.572052,158.359099
90.868774,159.685225
94.575774,160.301461
97.247621,161.841984
98.797674,164.922800
98.608715,169.352128
97.987140,172.566507
96.715584,176.211772
93.457415,178.265928
89.662334,179.514255
86.243052,181.596999
82.765126,183.373753
78.604166,184.180550
74.569305,184.218505
70.284224,183.929097
67.320888,182.504400
64.645419,180.772083
62.062410,178.262305
60.325578,175.275774
59.404797,171.793385
59.294718,168.124056
59.809836,164.359143
60.531212,158.309449
59.627307,153.277518
58.168220,149.588393
58.076710,145.622520
59.680769,142.107733
63.414677,141.623828
66.394820,144.239057
69.327909,146.836899
72.951221,148.495530
76.209216,150.785041
79.190384,153.443216
84.161375,156.315296
87.572052,158.359099"/>

<polyline fill="none" style="stroke:rgb(48.33333333333333%,74.16666666666659%,40.0%);stroke-width:0.5" points="
89.035255,158.615664
94.184419,161.176947
96.314412,162.641363
97.829770,165.235769
98.219763,169.326457
98.811849,173.597746
99.903691,177.407323
97.646252,179.978735
93.724760,179.317357
89.832487,179.595645
86.243052,181.596999
82.765126,183.373753
78.604166,184.180550
74.570022,184.188514
70.486209,183.365235
67.779729,181.730232
65.352643,179.877983
62.835744,177.597902
60.958409,175.000857
59.881664,171.739685
59.803662,168.156572
60.196622,164.409108
60.741159,158.304930
59.201760,153.443341
56.379547,150.892352
55.948866,147.006900
55.950222,143.029996
56.890977,139.281370
60.454984,137.978151
64.263998,138.956577
67.561112,141.176118
70.474931,143.882157
73.638871,146.280997
76.540421,148.999609
79.376302,151.784175
82.181255,154.589178
85.594349,156.624971
89.035255,158.615664"/>

<polyline fill="none" style="stroke:rgb(49.99999999999999%,74.99999999999991%,40.0%);stroke-width:0.5" points="
88.249181,157.923037
91.033507,159.859835
93.817833,161.796632
96.819323,165.614546
97.268255,169.453525
98.811849,173.597746
99.903691,177.407323
97.678183,180.375145
93.835393,180.097632
89.832487,179.595645
85.861637,180.815232
82.433192,182.377638
78.512093,183.224979
74.647775,183.231763
70.730023,182.656406
68.140611,181.177694
65.759189,179.396722
63.466036,177.089913
61.817145,174.571740
61.089651,171.508619
60.793439,168.169451
60.824888,164.454867
61.456052,158.220089
59.602676,153.179426
57.676546,150.200625
55.948866,147.006900
54.545219,144.413379
53.763078,140.618587
55.451088,137.027117
58.516967,134.568304
62.461544,133.959724
66.414008,134.638500
68.727313,137.867276
70.901309,141.206889
73.698420,144.095827
76.482998,146.997192
79.352882,149.813226
82.207360,152.644899
85.054739,155.483852
88.249181,157.923037"/>

<polyline fill="none" style="stroke:rgb(51.66666666666666%,75.83333333333324%,40.0%);stroke-width:0.5" points="
88.249181,157.923037
90.815953,160.146492
93.224656,162.391286
95.480186,166.143590
96.281476,169.711558
98.176919,173.776610
98.541004,177.201067
96.907046,179.093532
93.835393,180.097632
89.832487,179.595645
85.808422,180.674988
82.253597,181.742812
78.446729,182.237482
74.765759,182.098138
71.226404,181.369517
68.768550,180.120604
66.301446,178.679419
63.786565,176.818565
61.817145,174.571740
61.089651,171.508619
60.793439,168.169451
60.824888,164.454867
61.070544,158.278609
59.309933,153.331701
57.573002,150.261274
55.948866,147.006900
54.945395,144.286321
55.219608,140.816783
56.329926,137.598547
58.710044,134.974693
62.456046,134.139614
66.109864,135.155583
70.590801,139.702394
72.773430,143.090212
75.581070,146.007785
78.404000,148.912525
81.276842,151.766326
85.054739,155.483852
88.249181,157.923037"/>

<polyline fill="none" style="stroke:rgb(53.333333333333336%,76.66666666666657%,40.0%);stroke-width:0.5" points="
88.056895,158.153297
90.353555,160.617111
92.153096,163.160847
93.713109,166.719884
94.124540,169.995560
93.664419,173.168306
92.433745,174.570688
89.031404,177.230839
85.344817,179.604897
82.104310,181.224417
78.435983,182.057814
74.765759,182.098138
68.768550,180.120604
66.301446,178.679419
63.950791,176.643559
62.326649,174.316232
61.148869,171.498961
60.670907,168.011042
60.478171,164.038877
60.945163,160.089067
60.244996,156.173620
58.217502,152.762902
55.833955,149.602236
54.545462,145.841481
54.061038,141.917624
55.177031,138.109756
57.104443,134.666132
60.635433,133.108509
64.424036,133.957504
67.963192,135.773536
70.512980,138.731111
72.498915,143.272397
74.251363,147.079081
77.216735,150.301045
80.522741,152.620384
84.977753,155.575877
88.056895,158.153297"/>

<polyline fill="none" style="stroke:rgb(55.00000000000001%,77.4999999999999%,40.0%);stroke-width:0.5" points="
87.659141,158.561547
89.940792,160.965232
91.809596,163.345434
93.152097,166.811329
92.838970,169.897911
91.845010,172.314016
88.334801,176.328817
85.044634,179.120536
82.003080,180.974243
78.428786,181.998249
74.778765,182.009087
69.981694,180.840341
66.517047,179.006361
63.589041,176.325891
61.244640,173.173721
59.956046,169.419841
59.336935,165.566042
59.956325,161.648411
59.765214,157.687231
58.332994,154.056052
55.790283,151.015087
54.220283,147.411046
53.624868,143.493668
53.943408,139.578033
55.251045,135.829488
57.419011,132.615663
61.256302,132.625852
64.942449,134.086931
67.699604,136.100514
69.879969,139.133345
72.309162,143.362304
74.251363,147.079081
77.216735,150.301045
80.522741,152.620384
84.829812,155.764815
87.659141,158.561547"/>

<polyline fill="none" style="stroke:rgb(56.66666666666668%,78.33333333333323%,40.0%);stroke-width:0.5" points="
89.503604,161.280793
90.709817,163.816663
91.153782,167.026221
90.422918,171.540145
87.357050,175.354971
84.336966,178.188954
81.660986,180.142068
78.300874,181.168080
74.834791,181.231446
69.981694,180.840341
66.700869,179.208300
63.434641,176.984565
61.103425,173.804135
59.437945,170.217729
58.978875,166.296872
58.973332,162.330899
58.959565,158.364901
58.038236,154.532748
55.867635,150.969118
54.800243,147.257547
54.133543,143.458736
53.943408,139.578033
54.264838,135.512160
54.590279,131.577567
53.998295,127.668047
55.855748,124.450946
59.362056,125.228981
61.787497,128.226876
65.520990,129.533322
68.915115,131.514567
71.006216,134.803320
71.878370,138.659668
73.157092,142.362255
75.818334,145.284749
78.624063,148.083989
81.404217,150.910174
84.200670,153.719010
86.723320,156.764167
89.503604,161.280793"/>

<polyline fill="none" style="stroke:rgb(58.33333333333335%,79.16666666666656%,40.0%);stroke-width:0.5" points="
89.127694,161.467876
89.780031,164.054394
90.223797,167.026631
89.844223,171.291152
88.524974,173.950985
84.242339,178.072574
81.463877,179.704592
78.236428,180.662308
74.849432,180.781690
70.453413,179.481297
67.429018,177.931426
64.395433,175.873641
62.004318,173.209515
60.292725,169.937036
59.517528,166.258938
59.423305,162.334569
58.959565,158.364901
58.010492,154.544163
55.867635,150.969118
53.933752,145.519968
52.746258,141.685104
51.139865,138.002746
50.183796,134.097633
49.945420,130.083021
50.072390,126.058900
51.925962,122.622236
55.586660,121.113690
59.423856,121.969006
62.355599,124.739864
65.546833,127.191067
69.037283,129.214911
72.088655,131.766121
73.048860,135.609120
73.200526,139.631355
74.556407,143.397376
77.043944,146.555402
79.943312,149.358960
84.043346,153.858095
86.554645,156.889235
89.127694,161.467876"/>

<polyline fill="none" style="stroke:rgb(60.00000000000002%,79.99999999999989%,40.0%);stroke-width:0.5" points="
87.946368,161.905882
88.786173,166.977236
88.048911,170.703745
87.042308,173.046099
83.563038,177.194720
81.123366,179.037311
78.095329,179.895254
74.953460,179.917937
70.664583,178.919743
67.624010,177.593684
64.634327,175.604335
62.253667,173.042748
60.490853,169.867439
59.517528,166.258938
58.956338,162.504362
58.226536,158.588844
56.811288,154.867217
55.177286,151.247255
53.937678,147.461797
52.566774,143.720639
50.795285,140.159791
49.592120,136.367366
48.897321,132.443359
48.167957,128.525840
47.952618,124.558752
48.590976,120.664298
51.072921,117.641734
54.701998,116.143896
58.597154,116.633229
61.832768,118.899569
64.222657,122.078462
65.850011,125.703136
68.361884,129.889347
70.089100,132.921493
71.597051,135.971654
72.438350,139.796955
73.913008,143.720002
75.856210,147.612104
78.911364,150.446751
83.306710,154.519423
85.827232,157.418929
87.946368,161.905882"/>

<polyline fill="none" style="stroke:rgb(61.66666666666669%,80.83333333333323%,40.0%);stroke-width:0.5" points="
84.550423,162.904571
84.836532,166.711605
84.224018,169.215293
80.581097,173.786108
76.939581,176.033198
71.062213,177.105726
68.012965,176.684828
64.634327,175.604335
61.482625,173.018713
59.316366,169.765312
58.226249,165.966449
57.090123,162.182786
56.190879,158.333000
54.851869,154.602887
53.773993,150.799999
52.163561,147.193675
50.430066,143.644672
49.065509,139.923697
47.701840,136.202402
46.982169,132.308494
46.306199,128.403277
46.669425,124.477680
48.053900,120.764153
49.393238,117.034133
50.755101,113.312172
52.504661,109.773105
55.430735,107.245752
59.023883,108.222847
61.087704,111.599679
62.363512,115.348490
63.092929,119.239720
64.222657,122.078462
65.236211,125.941166
66.832264,130.718331
68.516934,133.734578
69.802141,136.652456
70.942255,140.238854
72.216590,144.404681
74.722664,148.591114
78.077938,151.351344
81.675813,155.735234
83.096058,158.854133
84.550423,162.904571"/>

<polyline fill="none" style="stroke:rgb(63.333333333333364%,81.66666666666656%,40.0%);stroke-width:0.5" points="
83.065807,163.109615
82.689984,166.301952
78.936089,171.724074
75.870107,173.392329
71.016652,174.226298
68.408582,174.138639
65.608179,173.446315
62.572004,171.862737
60.003447,169.397046
58.226249,165.966449
57.118555,163.148856
56.139907,159.286568
55.030533,155.462285
52.926090,152.116255
51.663190,148.345268
50.037368,144.718753
48.399869,141.088938
46.979930,137.358655
45.946054,133.518880
45.260219,129.586282
45.272213,125.643005
45.909385,121.705059
45.956342,117.713750
46.053382,113.737212
48.317977,110.609533
51.826713,108.725580
55.481980,108.793043
59.295616,112.687002
61.215191,115.696258
62.371709,119.445474
63.165689,122.417375
64.520148,126.164128
65.972884,131.073573
67.347663,134.346679
68.922330,137.035057
70.202011,140.484580
71.945052,144.532161
74.722664,148.591114
78.056829,151.372662
80.914621,156.155588
82.234958,159.205413
83.065807,163.109615"/>

<polyline fill="none" style="stroke:rgb(65.00000000000003%,82.49999999999989%,40.0%);stroke-width:0.5" points="
82.016092,163.113043
81.395313,165.824294
77.652709,170.064123
75.062702,171.292912
70.897812,172.099648
66.362285,171.263417
63.607350,170.143100
61.164032,168.447304
58.924440,165.619030
57.482429,163.009237
55.968130,159.340090
54.589496,155.651638
52.926090,152.116255
51.578713,147.959714
49.518605,144.531766
48.399869,141.088938
46.979930,137.358655
45.946054,133.518880
45.260219,129.586282
44.952806,125.148821
45.025957,121.139238
45.709144,117.182327
45.503466,113.224299
45.112384,109.266656
47.414085,106.330904
51.336395,106.637111
54.857898,108.526327
58.214075,110.703653
60.969881,113.597665
62.587292,117.216021
63.605361,121.085171
64.302148,125.039710
65.601677,128.832358
66.980045,132.603829
68.948280,136.100838
70.656294,139.719808
72.733031,143.088665
75.020272,146.344646
77.802707,149.220941
80.264340,152.358389
81.242772,156.224284
81.975191,159.278771
82.016092,163.113043"/>

<polyline fill="none" style="stroke:rgb(66.66666666666671%,83.33333333333321%,40.0%);stroke-width:0.5" points="
80.864894,162.910098
76.791872,168.836480
74.570342,170.102475
70.846689,170.901180
66.675768,170.198608
64.219434,169.041800
61.955786,167.585932
59.501659,165.189525
57.988621,162.747396
56.106820,159.282986
54.589496,155.651638
53.065667,152.061315
51.578713,147.959714
50.238135,144.231062
48.846801,140.914174
47.065202,137.329899
45.350202,131.666237
44.654966,127.690824
43.963116,123.714821
43.950896,119.679659
43.290363,115.700531
43.759359,111.717965
45.340368,108.044239
47.527429,106.575932
51.336395,106.637111
56.181782,108.732715
59.203843,111.270581
61.755944,114.377193
63.332494,118.071465
64.037576,122.042896
64.720204,125.471379
65.402833,128.899861
66.952794,132.616374
68.404371,136.353618
70.126517,140.001450
72.361543,143.342581
75.020272,146.344646
77.780098,149.240661
79.528278,152.696249
80.749426,156.353447
81.168306,159.347041
80.864894,162.910098"/>

<polyline fill="none" style="stroke:rgb(68.33333333333339%,84.16666666666654%,40.0%);stroke-width:0.5" points="
79.919433,162.528186
77.795799,164.942395
75.672165,167.356605
70.760463,169.073363
67.069769,168.844844
62.704919,166.648495
60.229479,164.519700
58.244505,162.590859
56.133813,159.269896
54.810474,155.557998
53.231996,151.992553
51.767865,148.741467
50.435207,144.158579
49.338476,140.690891
47.674960,137.077394
45.818861,131.562637
44.949525,127.634061
43.963116,123.714821
42.492806,118.461029
39.519393,115.852104
38.046830,112.287235
39.292746,108.542182
42.133050,105.817336
45.886379,104.494863
49.831666,103.993817
53.608539,105.066805
55.964630,108.261511
59.053157,111.416839
61.626964,114.453759
63.332494,118.071465
64.538214,121.945632
65.162035,125.386040
65.750294,128.806009
67.050486,133.095327
68.649344,136.240216
70.494829,139.799628
72.498530,143.729167
75.206944,146.647178
77.988791,149.506485
79.840135,152.987704
80.749426,156.353447
80.838351,159.347797
79.919433,162.528186"/>

<polyline fill="none" style="stroke:rgb(70.00000000000006%,84.99999999999987%,40.0%);stroke-width:0.5" points="
78.800575,161.949077
77.200043,164.393753
75.099523,166.476627
70.636726,167.970562
67.245565,168.115848
63.028598,166.179371
60.487364,164.227180
58.562594,162.316710
56.321537,159.175784
54.025713,153.842174
51.947165,150.369604
50.982802,146.455147
50.253371,142.475063
48.830265,138.689814
46.858142,135.160060
45.872708,131.250339
45.126538,127.274493
43.819689,123.449515
42.038725,119.823777
39.172070,117.008876
37.348791,113.482125
38.046967,109.595701
41.022907,106.880931
44.532848,104.866669
48.268218,103.344779
52.255860,103.101551
55.964630,108.261511
58.826612,111.613443
60.886713,114.910736
62.782982,118.311846
64.248313,122.022715
65.162035,125.386040
65.750294,128.806009
67.050486,133.095327
69.757928,138.681338
72.596820,143.660326
76.955985,148.349808
79.328553,153.159620
79.883399,156.428360
79.824363,159.239316
78.800575,161.949077"/>

<polyline fill="none" style="stroke:rgb(71.66666666666673%,85.8333333333332%,40.0%);stroke-width:0.5" points="
75.890231,160.596462
73.724124,164.259759
70.230375,165.727491
67.434629,166.030311
63.618428,165.000336
60.956986,163.605340
58.783230,162.113596
56.545634,159.902644
54.082007,156.748877
51.648188,153.598942
50.187163,149.872624
49.071049,146.038739
48.150244,142.150491
46.201631,138.656898
44.998578,134.864324
43.994429,131.000592
42.609359,127.240486
40.367034,123.973191
38.210255,120.637512
37.211531,116.769203
37.096550,112.803494
38.761515,110.036815
41.828917,108.214151
45.357703,106.861721
48.757133,106.060415
51.358613,105.890948
54.915810,106.635711
58.473006,107.380474
62.097852,108.935138
64.741322,111.891214
67.823523,114.429926
71.042365,116.806726
72.698129,120.231908
71.568234,124.066242
69.649678,127.583633
67.886396,131.168155
68.495179,135.074886
69.103963,138.981617
72.015240,144.133272
75.671738,149.057910
76.960827,153.688435
77.246352,156.412584
75.890231,160.596462"/>

<polyline fill="none" style="stroke:rgb(73.3333333333334%,86.66666666666654%,40.0%);stroke-width:0.5" points="
74.411105,159.742555
71.800821,161.547334
67.563033,162.224047
64.564675,161.812678
60.462382,159.886626
58.394456,158.103957
55.644830,155.393134
53.201890,152.632842
51.310963,149.452162
49.906334,145.795743
48.566093,141.978653
47.018084,138.358251
45.998144,134.543494
44.469437,130.816260
42.609359,127.240486
40.367034,123.973191
38.490053,120.529706
37.809447,116.729053
38.234005,113.180786
39.735176,110.880415
42.207243,108.964092
45.573423,107.548641
48.835291,106.806003
54.894040,106.753688
58.473006,107.380474
63.221945,109.406164
66.363902,111.861563
69.562155,114.258900
72.457168,116.946843
73.942793,120.603591
73.474407,124.525893
71.460422,127.932309
68.865662,130.952483
68.597257,134.799957
69.910383,138.563847
71.890754,142.025804
74.482370,145.061831
76.210462,148.640525
77.015911,152.552038
76.303579,156.236651
74.411105,159.742555"/>

<polyline fill="none" style="stroke:rgb(75.00000000000007%,87.49999999999987%,40.0%);stroke-width:0.5" points="
73.215823,158.649319
71.084468,160.130901
67.563976,160.874089
64.943049,160.548123
61.062237,158.952675
58.874716,157.528470
56.116804,154.931826
53.435181,152.444499
50.517951,148.456325
49.377921,144.590961
48.736103,141.919762
47.613466,138.152291
46.484180,134.389116
44.874247,130.619783
42.686299,127.193795
40.703554,123.776141
39.524988,120.222551
39.426445,116.795455
39.978922,113.730582
41.250347,106.753082
42.678711,103.038073
45.758262,100.580941
49.669080,100.638038
52.780669,103.101049
55.043463,106.429435
58.054508,108.339939
62.358086,110.776113
65.556413,113.052535
69.030249,114.947118
72.116655,117.192648
73.824304,120.622391
73.130882,124.418426
71.361969,127.863718
69.335546,131.150688
69.282157,134.716417
70.324431,138.387755
71.989983,141.958349
74.069906,145.307009
75.016729,148.929524
75.186354,152.519528
74.738585,155.627344
73.215823,158.649319"/>

<polyline fill="none" style="stroke:rgb(76.66666666666674%,88.3333333333332%,40.0%);stroke-width:0.5" points="
70.656929,156.207116
67.220845,158.532294
61.388550,158.244662
56.362546,154.668746
53.746564,152.162654
50.786308,148.322222
49.377921,144.590961
48.649192,141.943140
47.613466,138.152291
46.484180,134.389116
44.636659,130.748038
42.609291,127.240376
40.703554,123.776141
39.762542,120.188897
39.756019,116.811185
39.539445,112.709034
38.953895,108.799035
38.952849,104.840015
39.770518,101.042241
42.558278,98.327206
44.472255,94.960002
45.780066,91.236165
49.099631,89.630601
52.501056,91.546664
54.620682,94.841754
55.842252,98.552161
56.049323,102.493820
56.522693,106.412177
57.664997,108.748212
60.911449,112.688465
63.931711,115.089060
66.114172,117.887796
67.295740,120.137527
68.183217,123.873674
68.256039,127.071092
68.445444,131.063336
69.282157,134.716417
70.463591,138.331859
72.259624,141.827155
73.641542,145.441589
73.761989,148.949952
73.032951,152.147866
70.656929,156.207116"/>

<polyline fill="none" style="stroke:rgb(78.33333333333341%,89.16666666666653%,40.0%);stroke-width:0.5" points="
69.150614,154.745044
66.493448,156.666090
61.866530,156.759807
56.567570,154.373525
51.521875,150.978433
49.817064,147.346747
48.298089,143.617337
47.121762,139.774808
45.741379,135.991508
44.432613,132.183305
42.809303,128.510390
40.755375,125.050766
39.585431,121.203289
38.951183,117.231169
38.947812,113.203915
38.951761,109.176657
39.364232,104.920606
40.946883,101.704511
43.247317,98.858319
45.102105,95.241750
46.049237,91.425143
48.994936,88.130226
51.964091,85.417268
54.834175,82.595680
58.108554,80.332397
60.020157,83.258293
59.692622,87.250894
58.179638,90.980842
56.715481,94.730996
56.531666,98.666744
56.511534,102.662461
57.232832,108.953209
59.357222,114.053372
62.205857,116.713135
64.116356,119.216810
66.133788,124.163569
66.371018,127.204955
67.207725,131.296936
68.567714,134.943901
69.906649,138.554989
71.401791,142.186223
71.888267,145.675520
71.598148,148.621300
70.889346,151.287360
69.150614,154.745044"/>

<polyline fill="none" style="stroke:rgb(80.00000000000009%,89.99999999999986%,40.0%);stroke-width:0.5" points="
67.603364,153.157410
62.000901,155.029775
56.623093,154.267185
52.695670,151.811434
49.841425,149.076476
47.981587,145.574800
46.997247,141.740471
46.151883,137.864853
44.731819,134.159591
43.273603,130.486011
41.000928,124.938528
39.585431,121.203289
38.951183,117.231169
38.947812,113.203915
38.950326,107.515658
39.450819,104.945156
41.022762,101.752909
43.068279,98.748650
45.073905,95.231514
47.264757,92.474198
50.172346,91.363474
52.966730,91.762507
55.373376,94.894354
56.172111,98.678029
56.301817,102.673333
57.232832,108.953209
59.672655,113.824082
62.272622,116.652781
64.116356,119.216810
66.133788,124.163569
66.371018,127.204955
67.207725,131.296936
68.615845,135.431573
70.173595,139.062557
71.680999,142.687847
71.888267,145.675520
71.077268,148.481694
69.897581,150.735821
67.603364,153.157410"/>

<polyline fill="none" style="stroke:rgb(81.66666666666676%,90.83333333333319%,40.0%);stroke-width:0.5" points="
67.030682,152.070820
61.805610,153.847460
56.757795,153.901193
53.341309,152.310111
49.924823,150.719029
47.179493,147.937221
46.016125,144.133943
45.951619,140.134645
45.319815,136.184786
43.973035,132.416772
42.106910,128.877772
40.745525,125.112714
39.562672,121.292879
38.239210,117.518173
37.952974,113.539206
37.954400,109.535407
37.995508,105.534197
38.664557,101.593582
39.822284,97.775714
42.204957,94.641436
45.834509,93.006023
50.179768,92.051683
54.887839,95.130570
55.963837,98.704869
56.242051,102.678618
57.232832,108.953209
59.942240,113.633772
62.201828,116.708318
63.590866,119.506396
65.669281,124.284350
66.371018,127.204955
66.966606,129.767216
68.919129,133.259291
70.574315,136.893622
71.992504,140.637302
72.642188,144.512109
71.306097,148.281970
69.610882,150.518199
67.030682,152.070820"/>

<polyline fill="none" style="stroke:rgb(83.33333333333343%,91.66666666666652%,40.0%);stroke-width:0.5" points="
67.030682,152.070820
63.185858,154.168925
59.284703,154.648590
56.820243,153.669625
53.543187,151.908025
50.524413,149.893905
48.220276,147.340120
46.966751,144.000937
46.366430,140.071286
45.294741,136.891376
44.223052,133.711467
42.682697,128.622099
41.142504,124.975595
39.790575,121.217645
38.920969,117.414581
38.762731,113.520502
38.764392,109.538934
38.919602,105.637931
39.704479,101.883604
41.029702,98.379550
42.712463,95.233590
45.650455,93.047157
49.428391,91.981216
53.345611,92.620919
56.490015,94.996998
57.941256,98.651679
58.039100,102.631750
58.045294,106.615615
58.343600,110.532125
60.858325,113.568844
62.183690,116.556371
63.509054,119.543898
65.499393,124.343801
66.880747,128.291574
68.950161,131.633256
70.554866,135.232173
71.855796,138.993503
72.949810,142.808488
72.181205,146.669131
69.474279,150.358745
67.030682,152.070820"/>

<polyline fill="none" style="stroke:rgb(85.0000000000001%,92.49999999999984%,40.0%);stroke-width:0.5" points="
66.245968,150.722851
62.637555,152.391667
59.463402,153.129274
53.860314,151.329422
50.524413,149.893905
46.346627,145.734538
45.954712,141.774724
45.569402,137.818535
44.484351,133.996185
42.778930,130.401911
41.146623,126.776618
40.060455,122.958708
38.835743,119.165408
38.033553,115.279002
38.420873,111.333557
38.784847,107.403281
37.426197,103.686152
36.447512,99.946707
38.668618,96.747248
42.184082,94.991638
46.106645,95.432292
49.266222,95.693051
51.788633,96.391597
55.683256,99.582150
56.939798,102.767746
57.746194,106.637697
58.343600,110.532125
59.762744,114.190462
61.270457,117.009880
62.888006,119.843948
65.304017,124.420776
66.880747,128.291574
68.552626,131.844125
70.135282,135.394794
71.600225,139.080488
72.590648,142.832295
71.678853,146.401187
68.567043,149.281300
66.245968,150.722851"/>

<polyline fill="none" style="stroke:rgb(86.66666666666677%,93.33333333333317%,40.0%);stroke-width:0.5" points="
62.026778,150.635111
59.419236,151.031498
54.274336,150.203257
51.661514,148.347491
48.115782,144.726667
47.015350,141.578329
45.891637,137.747672
44.568614,133.964567
43.191868,130.223220
41.851118,126.519352
40.488553,122.820129
38.922435,119.141277
38.033553,115.279002
37.945396,109.775822
36.816327,105.919589
35.620004,102.072053
37.107363,98.525238
42.378562,96.114922
46.038308,95.998115
48.986608,96.639707
54.352370,100.654123
55.871436,103.163231
57.278418,106.744438
59.615844,112.523552
61.249895,116.209091
63.449024,119.555462
65.021763,123.266090
66.880747,128.291574
68.216457,131.971935
69.123665,135.772204
70.043591,139.376819
70.054139,142.610380
69.029875,144.997454
67.123923,147.555863
62.026778,150.635111"/>

<polyline fill="none" style="stroke:rgb(88.33333333333344%,94.16666666666652%,40.0%);stroke-width:0.5" points="
61.774223,149.803113
54.877177,148.732019
52.612164,147.226262
49.401471,143.844263
47.709367,141.296078
45.948739,137.729253
44.568614,133.964567
43.496000,131.558629
41.948513,127.861036
40.897014,123.997240
39.287685,120.330560
36.923126,117.093894
36.261452,113.282473
36.938296,109.320347
36.255872,105.361551
36.129532,102.093804
37.267190,98.661079
40.701935,95.002092
44.508603,94.613000
48.193856,96.201537
51.674758,98.211736
54.614366,100.865566
56.341730,104.477426
57.554048,108.298347
58.774660,112.116604
60.683520,115.641787
62.712343,119.111600
64.167246,122.847023
65.783788,126.513539
67.769862,130.008256
69.194001,133.759653
69.946853,137.703943
69.850683,142.558876
68.793856,144.866366
66.681760,147.065872
61.774223,149.803113"/>

<polyline fill="none" style="stroke:rgb(90.00000000000011%,94.99999999999984%,40.0%);stroke-width:0.5" points="
61.050760,147.302675
55.249467,147.847513
53.032062,146.642444
49.425084,143.825760
46.945904,140.521417
44.700699,137.197607
42.356424,133.933583
40.329608,130.450644
38.184439,127.045471
35.527689,124.019424
33.465417,120.609518
33.561383,116.636389
34.895568,112.838443
35.938527,108.963391
35.531686,104.964044
34.944665,100.979892
34.897267,96.953452
34.286407,92.975506
35.272659,89.147480
37.903808,86.147848
41.424769,84.279648
45.259190,84.972340
47.524006,88.299150
49.571940,91.769175
50.863746,95.540874
51.674758,98.211736
53.663436,101.547104
55.488069,104.846015
57.159002,108.440596
58.774660,112.116604
61.588902,116.897729
63.416064,120.461721
64.849364,124.205226
66.087438,127.197131
67.325511,130.189037
68.354651,133.988511
68.748133,137.750409
67.586612,141.699542
64.870543,144.905809
61.050760,147.302675"/>

<polyline fill="none" style="stroke:rgb(91.66666666666679%,95.83333333333317%,40.0%);stroke-width:0.5" points="
60.179759,144.557851
55.855780,144.817617
50.280539,142.785818
47.366460,140.183359
44.897419,137.060127
43.432525,133.340768
41.467608,129.724578
38.761465,126.567018
35.885947,123.747154
33.552512,120.586843
33.526999,116.837701
34.895568,112.838443
35.129923,108.917714
35.114258,105.010338
34.616102,101.010489
34.118863,97.001887
34.226502,92.972256
35.399646,89.226821
38.521874,87.335454
41.586404,87.419942
46.668432,89.046471
49.571940,91.769175
51.082285,94.770271
52.064996,98.611873
53.602266,102.266908
55.587378,105.712810
57.402195,109.239186
58.771504,112.972795
60.738303,116.412907
62.955106,119.698742
64.834721,123.193708
66.531208,126.776704
67.182228,130.233270
67.762543,134.085289
67.438866,137.583692
65.828763,140.608704
63.352148,142.971643
60.179759,144.557851"/>

<polyline fill="none" style="stroke:rgb(93.33333333333346%,96.6666666666665%,40.0%);stroke-width:0.5" points="
59.972264,143.837190
55.912199,144.220605
50.396594,142.610953
47.695810,139.876724
45.187382,136.902705
43.676590,133.225309
41.636681,129.600125
38.761465,126.567018
36.023745,123.631369
33.980925,120.449207
33.526999,116.837701
34.718582,112.805681
35.129923,108.917714
35.114258,105.010338
34.765260,100.994802
34.748520,96.982208
34.788841,93.065369
35.590911,89.371771
38.785851,86.961369
42.575034,85.945301
46.229143,87.210248
48.731646,90.281006
51.918108,92.647382
52.705944,96.446733
53.163685,100.377716
54.872670,103.983271
57.111619,107.301179
60.161741,109.872525
62.937046,112.740575
64.042369,116.568183
64.059837,120.579474
65.152595,123.723602
66.245353,126.867731
66.945413,130.272226
67.013118,134.068268
66.410225,137.254928
65.257188,140.170970
63.018849,142.547300
59.972264,143.837190"/>

<polyline fill="none" style="stroke:rgb(95.00000000000013%,97.49999999999983%,40.0%);stroke-width:0.5" points="
59.516928,142.441556
55.965389,142.932659
51.104614,141.391632
48.167389,139.374217
45.287922,136.837289
43.676590,133.225309
41.886601,129.434510
39.807805,125.766229
37.851619,122.428741
36.504579,119.490448
35.769981,116.751484
35.135984,112.840800
35.129923,108.917714
35.114258,105.010338
35.634994,100.991860
35.887209,97.031255
36.695540,93.795093
38.512689,91.711192
40.575594,90.219125
45.207716,89.621414
48.621061,90.422322
53.885191,91.012244
56.494822,93.753986
57.061454,97.710651
57.973195,101.578316
60.076703,104.948760
62.132654,108.390871
65.275215,110.850852
66.829020,114.417473
66.582728,118.371080
66.050971,122.336606
66.207488,126.334556
66.945413,130.272226
66.804003,134.049032
65.754378,137.040913
64.162424,139.334106
62.128061,141.159552
59.516928,142.441556"/>

<polyline fill="none" style="stroke:rgb(96.6666666666668%,98.33333333333316%,40.0%);stroke-width:0.5" points="
59.111142,141.154017
56.162643,141.659859
51.851041,139.954129
49.054078,138.239631
46.345808,135.999107
44.313374,132.890189
42.177405,129.278550
40.067659,125.616310
38.143169,122.274161
36.756389,119.393118
35.799334,116.745287
34.965647,110.467886
34.963464,106.419721
34.955757,102.371562
36.490253,97.206263
38.001403,94.532443
40.903670,90.992353
45.202776,89.741308
47.768065,89.839737
51.755670,89.142374
55.580492,89.971097
57.002638,93.708913
57.061454,97.710651
57.861915,101.623205
59.767916,105.133818
61.879614,108.602621
64.437859,111.484302
65.899555,114.652088
65.777276,118.285604
65.841059,122.332073
66.207488,126.334556
66.945413,130.272226
66.804003,134.049032
65.570629,136.939374
63.818010,138.959670
61.533450,140.187320
59.111142,141.154017"/>

<polyline fill="none" style="stroke:rgb(98.33333333333347%,99.16666666666649%,40.0%);stroke-width:0.5" points="
59.038992,140.832239
56.212169,141.031996
52.088113,139.502656
49.399657,137.749171
47.166749,135.297484
45.350075,132.286276
43.261812,128.636956
41.074140,125.019783
38.833477,121.851630
36.973046,119.290178
35.114042,113.719372
34.965647,110.467886
34.963464,106.419721
34.955757,102.371562
35.414016,97.900375
37.706245,94.706012
41.307283,91.693771
45.281310,90.184131
48.166809,89.508535
51.989996,88.493855
55.865865,88.231770
57.716907,91.184774
57.052409,95.093588
57.050558,99.064095
57.104726,103.030249
57.878986,106.913951
60.015532,110.185934
63.112330,112.656872
65.307962,115.920169
66.076530,119.785236
66.106392,123.755086
66.597754,127.688869
66.945413,130.272226
66.311017,133.918957
64.926779,136.499558
61.353235,139.841645
59.038992,140.832239"/>

<line x1="28.0" y1="75.0" x2="28.0" y2="71.0" style="stroke:rgb(100.0%,100.0%,100.0%);stroke-width:1.0"/>
<line x1="46.0" y1="75.0" x2="46.0" y2="71.0" style="stroke:rgb(100.0%,100.0%,100.0%);stroke-width:1.0"/>
<line x1="28.0" y1="73.0" x2="46.0" y2="73.0" style="stroke:rgb(100.0%,100.0%,100.0%);stroke-width:1.0"/>

<text x="29.0" y="71.0" style="font-family: Courier;font-size: 6.0;fill: rgb(100.0%,100.0%,100.0%);letter-spacing: 0.0;text-anchor: start">18&#x3BC;m</text>
</svg>
