<?xml version="1.0" standalone="no"?>
<svg width="15cm" height="15cm" viewBox="215 208 113 169" xmlns:xlink="http://www.w3.org/1999/xlink" xmlns="http://www.w3.org/2000/svg">

<rect x="215" y="208" width="113" height="169" style="fill:rgb(0,0,0);stroke-width:0;stroke:rgb(0,0,0)"/>

<polyline fill="none" style="stroke:rgb(0.0%,50.0%,40.0%);stroke-width:0.5" points="
284.697939,231.761302
288.156432,233.723024
290.480535,236.986993
292.494937,240.469239
294.318273,244.044542
295.024450,247.976839
294.859414,251.984702
294.364696,255.965224
293.959070,259.955082
291.497492,263.113267
288.685773,265.986305
285.292235,268.112521
281.516125,269.499904
277.761515,270.935566
274.131646,272.648057
270.349223,273.884026
266.341770,274.063362
262.572189,272.933604
260.385848,269.671046
259.948781,265.699481
259.949886,261.676566
260.532578,257.703130
261.232124,253.741508
262.239744,249.861715
263.292875,245.994920
265.296218,242.508654
267.429884,239.107403
270.203863,236.195756
273.325237,233.673903
276.851765,231.753748
280.760663,231.002706
284.697939,231.761302"/>

<polyline fill="none" style="stroke:rgb(1.6666666666666667%,50.83333333333333%,40.0%);stroke-width:0.5" points="
285.700046,231.913492
288.998865,234.062232
291.564300,237.151795
293.775667,240.500088
294.967020,244.313746
295.655931,248.277737
296.044560,252.267964
296.043975,256.291369
294.544272,259.946679
292.044831,263.090341
289.328609,265.991156
285.292235,268.112521
282.220309,269.677250
279.169179,272.296914
275.892748,274.611543
272.570374,276.841826
269.687996,279.648689
265.873739,279.948660
263.230291,276.998707
262.116493,273.153913
261.045887,269.471261
260.787797,265.658922
261.026629,261.760344
261.569894,257.865826
262.145093,253.918019
263.081151,250.082925
263.889122,246.196339
265.554723,242.660876
267.694136,239.305021
270.306566,236.305074
273.443024,233.847757
276.959558,232.033670
280.760976,231.062700
285.700046,231.913492"/>

<polyline fill="none" style="stroke:rgb(3.3333333333333335%,51.66666666666666%,40.0%);stroke-width:0.5" points="
286.923535,232.307020
288.585984,234.453994
290.890773,237.653751
293.032398,240.890803
294.472459,244.438252
295.478189,248.305976
295.894670,252.273526
295.483989,256.185025
294.413192,259.873811
291.894648,262.943870
288.769632,265.285874
284.169745,269.372074
281.315887,272.244231
278.452708,275.106832
275.490439,277.868493
272.247460,280.278859
268.789182,282.277031
265.007878,281.224661
261.879147,278.776422
260.945350,274.954891
260.928914,270.905367
260.620866,266.880220
260.951658,262.857166
261.079224,258.816674
261.922650,254.865380
262.797085,250.921941
263.709024,246.988546
265.158624,243.206674
267.718156,239.322994
269.886238,236.682650
272.609307,233.691101
276.103533,231.645558
279.733974,229.881472
283.705875,229.885335
286.923535,232.307020"/>

<polyline fill="none" style="stroke:rgb(5.0%,52.49999999999999%,40.0%);stroke-width:0.5" points="
286.583152,230.959686
289.548119,233.717754
292.208452,236.768416
294.513487,240.084539
295.887514,243.865624
296.595788,247.856003
297.044599,251.870547
296.795791,255.902372
295.514520,259.674296
292.435884,262.249907
289.147076,264.598002
286.208549,267.377661
284.169745,269.372074
281.315887,272.244231
278.452708,275.106832
275.186144,277.459626
271.970342,279.887096
268.625603,281.118607
265.302344,280.600753
262.350488,278.456007
260.945350,274.954891
260.645381,271.741246
260.345412,268.527601
259.618929,264.575605
260.197892,260.573201
262.270596,254.957155
263.525517,251.100353
264.734092,247.328251
266.137563,243.662040
268.403138,239.859122
270.577784,237.258537
273.134335,234.307790
276.231349,231.883388
279.830815,230.320919
283.668618,229.999402
286.583152,230.959686"/>

<polyline fill="none" style="stroke:rgb(6.666666666666667%,53.33333333333332%,40.0%);stroke-width:0.5" points="
286.361712,231.418021
289.548119,233.717754
292.605353,236.862338
295.156485,239.968045
296.604766,243.683702
297.629069,247.567939
297.766825,251.542292
297.386342,255.541480
297.994780,259.509280
295.509332,262.499497
291.783320,264.029089
288.085046,265.609118
286.068189,267.221549
283.855102,269.050367
280.862962,271.764330
277.700214,273.990273
274.109774,276.093294
271.152951,278.523982
268.593597,279.951771
265.783949,279.244709
263.004137,277.798637
258.927372,273.792490
255.409352,272.003316
251.522890,270.979349
248.254884,268.760972
246.722558,265.060340
246.443747,261.055522
247.971883,257.334730
251.033515,254.747393
254.520136,252.743476
257.485248,250.013796
260.340000,247.169109
263.178580,244.309212
265.992827,241.425179
268.880391,238.613740
271.769753,235.804721
276.572328,232.483191
280.024827,231.199591
283.546712,230.921308
286.361712,231.418021"/>

<polyline fill="none" style="stroke:rgb(8.333333333333332%,54.16666666666665%,40.0%);stroke-width:0.5" points="
285.973646,232.229547
289.073581,234.259213
292.156450,237.260436
294.553770,240.303756
296.145657,243.823599
297.004030,247.646107
297.226892,251.538451
297.386342,255.541480
298.223320,259.142863
296.563789,262.290817
291.727107,263.890030
287.888425,265.238253
285.430589,266.208839
282.779698,267.465862
279.283178,269.649756
276.248440,271.931572
273.061962,274.705355
270.044636,276.433495
266.408752,276.778026
259.677150,272.856715
255.744348,270.914283
250.940948,271.628546
247.116475,272.551090
245.662795,269.364145
245.566909,265.404603
244.476000,261.554399
242.437751,258.151199
239.113408,255.982258
237.060488,252.795103
236.724072,248.805704
237.362803,244.989145
241.166146,244.436490
244.738480,246.234009
248.218289,248.239165
251.716858,250.211395
255.234636,252.135982
259.121939,252.359700
262.345072,250.091706
264.340374,246.646448
265.872578,242.941113
268.438169,239.874105
270.873208,236.684783
273.978632,234.179588
276.572328,232.483191
280.024827,231.199591
283.497363,231.368230
285.973646,232.229547"/>

<polyline fill="none" style="stroke:rgb(10.0%,54.999999999999986%,40.0%);stroke-width:0.5" points="
285.602998,231.622225
289.063597,233.557240
291.975929,236.272945
294.439588,239.383648
295.978146,243.047115
297.008376,246.879808
297.867827,250.757386
297.524535,254.684286
296.878972,258.747446
295.021968,260.571442
291.286996,262.774158
287.518448,264.255596
285.011668,265.181045
282.183164,266.255269
278.308205,268.101515
274.977105,270.006946
271.459577,271.793365
269.054049,272.818064
260.636304,271.022405
256.187976,268.954872
251.176816,268.002514
249.061177,267.040864
246.837488,264.895301
244.584848,261.503972
242.437751,258.151199
239.199655,255.898836
237.060488,252.795103
236.500714,248.994779
234.573569,245.522857
232.034934,242.454244
230.323197,239.001152
232.550205,236.403505
235.939457,238.167240
238.158030,241.468243
241.545447,243.543396
244.819584,245.802649
248.331270,247.682758
251.828894,249.572426
255.407459,251.297718
259.258982,251.255603
262.404075,248.897274
264.361320,245.471657
266.119291,241.947174
268.736871,238.971777
271.405396,236.046779
274.259037,233.287018
277.760710,231.484543
281.695988,230.951779
285.602998,231.622225"/>

<polyline fill="none" style="stroke:rgb(11.666666666666666%,55.833333333333314%,40.0%);stroke-width:0.5" points="
285.529786,231.819034
288.976252,233.679181
293.505683,237.604571
295.391458,241.118672
297.139115,244.704646
297.621968,248.597068
297.166312,252.538281
299.101755,255.889015
302.603873,257.731446
306.570545,257.983074
309.217628,260.184539
306.580404,262.763864
302.665010,262.477573
298.817251,261.453156
294.854603,261.042940
290.987738,262.086699
287.334524,263.779917
284.834177,264.702928
281.988469,265.783911
277.998737,267.484846
274.509146,269.067196
270.933309,270.358680
261.029336,269.793774
256.310063,268.429671
251.186130,267.973997
246.334128,265.081952
244.459871,261.565323
241.882321,258.525186
238.944521,255.885054
237.255593,252.717430
236.819204,248.909688
235.892626,244.887636
234.580196,241.184808
233.388966,238.699025
230.056475,234.364138
227.630942,231.218032
225.009582,228.209630
225.315047,224.756437
229.063489,224.985214
231.988345,227.687096
233.804692,231.226587
235.417848,234.873663
237.392193,238.345574
239.335202,241.827378
241.800838,244.920199
245.410489,246.591025
249.018791,248.279490
251.856047,249.518924
255.549730,250.714905
259.004203,250.423949
261.785795,248.374111
263.888488,245.210866
265.994784,241.863521
268.423785,238.691818
271.148146,235.794943
274.259037,233.287018
277.769703,231.513163
281.695988,230.951779
285.529786,231.819034"/>

<polyline fill="none" style="stroke:rgb(13.333333333333334%,56.66666666666664%,40.0%);stroke-width:0.5" points="
285.581584,231.678264
289.027082,233.604911
293.505683,237.604571
296.677449,242.959590
298.898912,246.252696
301.649855,249.132048
304.411249,252.004441
307.243492,254.805092
309.776076,257.866029
312.361424,260.893313
312.754295,264.505635
309.209984,265.954853
305.397342,264.893004
301.716227,263.372444
297.922520,262.193024
293.949303,262.046151
290.065535,262.787445
286.466193,264.465107
281.966043,265.728259
277.939276,267.347138
274.347384,268.583982
270.809105,269.165683
265.966725,269.122973
261.124345,269.080264
256.310063,268.429671
251.458091,268.049789
247.878470,266.454308
244.459871,261.565323
241.882321,258.525186
239.420673,255.519997
238.100338,252.512538
237.773282,248.811554
237.589610,244.508553
236.652639,240.389615
235.372065,237.514647
232.388273,232.780731
229.833033,229.606991
228.876484,226.803415
233.502885,226.366669
235.986276,230.156394
237.556716,233.854467
239.475001,236.932542
241.954375,239.683704
244.309687,242.055780
246.796590,244.535747
249.620753,247.105213
252.228223,248.537498
255.181028,247.769086
258.686216,245.072448
260.983698,242.757529
263.984496,240.026446
267.584696,237.719777
270.791314,235.389724
274.112007,233.060563
277.670045,231.230295
281.700813,230.651868
285.581584,231.678264"/>

<polyline fill="none" style="stroke:rgb(15.0%,57.49999999999997%,40.0%);stroke-width:0.5" points="
285.436185,232.072203
288.975183,233.678438
293.234410,237.700469
295.372005,241.067278
297.270350,244.578451
298.180581,248.459436
300.239977,251.689206
304.015354,252.536713
307.429126,250.532813
311.338584,249.951898
315.159725,250.776592
317.386267,253.908904
316.282522,257.504876
313.461470,260.340191
311.067370,263.518690
307.649025,263.387147
305.982657,259.817646
302.685807,258.020132
299.092972,259.571758
295.447038,260.981564
291.691619,262.358353
286.424009,264.352767
280.583123,266.622080
277.939276,267.347138
274.325287,268.496737
269.004449,269.621367
265.051450,269.694042
261.124345,269.080264
256.310063,268.429671
251.486591,267.933227
248.036376,266.273637
244.459871,261.565323
242.093384,258.356845
240.492987,254.983685
240.029573,252.245436
242.730254,249.164635
243.610649,248.799337
248.698888,249.369573
252.084141,250.120807
256.139357,250.033828
260.470412,246.760129
262.315058,243.871534
264.631292,240.734118
267.584696,237.719777
271.909924,234.142735
275.405003,232.266077
281.659287,231.340617
285.436185,232.072203"/>

<polyline fill="none" style="stroke:rgb(16.666666666666664%,58.3333333333333%,40.0%);stroke-width:0.5" points="
285.276321,232.556483
288.815975,233.932612
293.234410,237.700469
296.155682,240.421754
299.375223,243.173677
301.934483,245.726050
304.899765,248.336278
307.403994,250.002222
311.031413,251.318548
313.781516,252.703288
315.167374,257.078289
313.911802,260.689255
311.128640,263.655573
307.233573,264.184249
303.948823,262.686080
299.478816,261.291918
295.665566,261.698450
291.805845,262.667953
286.542762,264.660660
280.807540,267.461956
278.053335,267.874283
274.290846,268.350783
268.957661,269.113567
265.106086,269.066465
261.193825,268.575025
256.327527,268.250546
251.486591,267.933227
248.036376,266.273637
244.630918,261.443549
242.721406,258.004956
241.279738,254.795608
243.123042,249.731885
248.679414,249.548336
252.018172,249.318787
254.712337,247.239777
258.261290,244.475295
260.408806,242.274400
263.363309,239.500622
266.987283,236.969474
271.564481,233.689893
275.189556,231.454858
278.418588,231.487499
281.647621,231.520139
285.276321,232.556483"/>

<polyline fill="none" style="stroke:rgb(18.333333333333332%,59.166666666666636%,40.0%);stroke-width:0.5" points="
285.236157,232.669546
288.495378,234.474934
293.234410,237.700469
296.155682,240.421754
299.190048,243.370162
301.816418,245.861814
304.618761,247.746907
308.336485,249.030017
311.031413,251.318548
312.417856,253.625513
313.009256,256.995499
312.413362,259.805006
310.534521,262.510763
307.271307,263.108112
303.948823,262.686080
299.427801,261.829502
295.665566,261.698450
291.093471,262.525974
287.438560,263.994276
284.120320,266.092777
280.513977,267.643737
274.258432,268.082748
268.921208,268.214414
265.130680,268.257015
260.727155,268.709196
256.785458,268.307497
252.830132,268.059165
249.170362,266.860290
243.861075,261.119181
241.814551,257.720727
239.297079,254.696005
239.502745,250.843391
242.036953,248.051757
245.977808,248.313030
249.807751,249.216708
253.392857,247.667270
256.391474,245.071691
259.214286,242.275677
261.984474,239.426915
264.896136,236.726015
268.227837,234.570582
271.319762,232.093242
274.690537,230.143900
278.573270,230.617669
282.447472,231.481744
285.236157,232.669546"/>

<polyline fill="none" style="stroke:rgb(20.0%,59.999999999999964%,40.0%);stroke-width:0.5" points="
286.058015,232.506456
289.579604,234.350931
292.842484,236.655704
295.855218,239.275497
298.644673,242.139934
301.485672,244.951337
304.943446,246.815141
308.670005,248.085350
311.468211,250.925136
313.684045,254.199626
313.768211,258.144695
311.888001,261.629843
304.609364,263.323100
300.750443,262.311335
296.772677,262.048979
292.780475,262.142003
287.438560,263.994276
283.915865,265.658720
280.312026,266.797505
274.253333,267.992898
268.921208,268.214414
265.128893,268.227068
260.726782,268.229197
256.790281,268.247692
252.835735,268.029693
249.981809,267.176077
244.130049,261.924806
240.643448,259.972211
238.268297,256.855818
238.399682,252.928547
240.102306,249.323861
242.570909,246.346009
246.376536,246.763863
250.005634,248.395180
253.715880,247.613363
256.391474,245.071691
259.214286,242.275677
262.277444,239.222846
265.344738,236.706709
268.737137,234.598494
271.342580,231.600048
274.665999,229.507214
278.606002,229.618344
282.295491,231.149512
286.058015,232.506456"/>

<polyline fill="none" style="stroke:rgb(21.666666666666664%,60.83333333333329%,40.0%);stroke-width:0.5" points="
286.203220,232.367692
289.407252,234.805948
292.210219,237.713179
294.240294,241.160448
295.804727,244.868510
298.826233,247.400003
302.792587,247.943756
306.781602,247.333873
310.402960,248.763343
312.770885,252.009648
313.840007,255.870220
313.428106,259.813096
310.841572,262.769906
307.023527,263.932006
303.042831,263.474349
299.151806,262.441768
295.228346,261.511688
291.208552,261.723525
287.425413,263.136564
283.757606,264.797618
279.961033,266.180926
276.043039,267.046591
272.011198,267.159207
268.028668,267.842553
264.004704,268.042899
260.006045,267.547762
255.997879,267.603130
251.995017,268.040125
244.985248,260.921594
241.899139,258.365809
238.576941,256.678236
238.012344,252.168279
238.950767,248.255187
239.719606,244.414674
243.358098,244.685489
246.862275,246.697373
250.471405,248.483060
254.435885,248.645627
257.800639,246.534327
260.667057,243.689807
263.572167,240.883407
266.162278,237.787890
268.786768,234.730462
271.587053,231.899313
274.835481,229.511592
278.606002,229.618344
282.613721,230.539379
286.203220,232.367692"/>

<polyline fill="none" style="stroke:rgb(23.333333333333332%,61.66666666666663%,40.0%);stroke-width:0.5" points="
286.001878,232.666012
289.048324,235.209397
291.874191,237.965132
294.106862,241.228967
295.876819,244.814636
298.173112,247.170838
302.792587,247.943756
306.687833,247.926207
310.147916,249.057862
312.190607,252.253873
312.521884,255.937732
311.805506,259.188487
309.966602,261.628456
306.941922,263.398614
303.042831,263.474349
299.151806,262.441768
295.205259,262.020952
291.346068,262.430249
287.503103,263.331655
283.804511,264.908058
279.961033,266.180926
276.013497,266.808416
272.011198,267.159207
267.985757,267.244266
264.023607,267.233148
260.019012,267.218035
255.981927,267.213491
252.385389,266.842299
248.846720,263.704326
245.308051,260.566352
242.169967,257.969607
237.903001,256.865554
233.927769,256.369111
230.758393,254.914513
231.787516,251.135698
235.020678,249.083515
238.744244,247.774482
239.719606,244.414674
242.933298,243.074971
245.988632,245.630904
249.347860,247.728563
253.135720,248.904675
256.822660,247.587553
259.747868,244.842993
262.184042,241.698881
264.744747,238.609782
267.688243,235.878068
271.684927,232.012982
275.018815,230.207521
278.560931,229.945242
282.496109,230.847687
286.001878,232.666012"/>

<polyline fill="none" style="stroke:rgb(24.999999999999996%,62.49999999999996%,40.0%);stroke-width:0.5" points="
286.001878,232.666012
289.008102,235.253919
291.690796,238.119941
293.927591,241.338300
296.046638,244.691114
298.312102,246.939639
302.677973,248.623056
306.432838,249.190490
308.715355,250.792618
310.244018,255.843581
309.927835,258.583252
306.654579,262.514313
303.058074,263.205062
299.100326,262.797928
295.203183,262.140918
291.346068,262.430249
287.192564,263.673254
283.756442,265.638460
280.046608,266.943469
276.070936,267.050181
272.090146,267.051966
268.109358,267.046889
264.128570,267.051571
260.147784,267.048176
256.209989,266.545389
252.419750,267.353421
249.408739,265.329154
247.454217,261.861685
244.612130,259.165401
242.169967,257.969607
237.903001,256.865554
234.221144,255.550520
233.067132,251.758917
235.576787,250.247432
239.190905,248.298275
241.402433,246.039749
245.641195,246.259166
249.261113,247.919809
253.134957,248.874685
256.592477,247.200902
259.747868,244.842993
262.801087,241.588323
264.667134,238.117536
264.961358,234.158150
267.875849,232.140075
271.812973,231.838140
274.913109,229.495908
278.696483,229.628914
282.432232,231.015965
286.001878,232.666012"/>

<polyline fill="none" style="stroke:rgb(26.666666666666668%,63.333333333333286%,40.0%);stroke-width:0.5" points="
285.808436,232.969623
289.008102,235.253919
291.690796,238.119941
293.421600,240.452505
295.407488,243.894115
297.769101,247.063901
301.258524,248.770800
305.203254,249.109765
308.723169,250.691966
310.025798,254.309165
310.048423,258.281914
308.498194,261.799871
304.781073,263.011743
299.089198,262.887229
295.181687,262.860560
291.402194,262.876413
288.890683,263.053530
285.049724,263.969913
281.790140,266.217632
277.958942,267.043603
270.012299,267.057322
266.095702,267.717336
262.155593,267.329495
256.208449,266.515428
252.636226,266.051519
249.473568,265.266763
246.541178,262.593275
244.151823,259.757025
242.169967,257.969607
238.162156,256.130138
234.628009,255.072656
233.933826,251.986570
239.851681,247.038535
242.009573,244.357101
245.242574,246.600036
248.560229,248.667088
253.105447,248.666846
256.218461,247.438153
258.961447,244.584841
261.724199,241.746220
263.759367,238.411555
264.127939,234.478026
266.800673,231.951281
270.738322,231.574041
274.016385,229.421439
277.616156,229.136484
282.264525,231.433529
285.808436,232.969623"/>

<polyline fill="none" style="stroke:rgb(28.333333333333332%,64.16666666666661%,40.0%);stroke-width:0.5" points="
287.769243,234.146511
291.690796,238.119941
293.421600,240.452505
295.407488,243.894115
297.939293,246.854307
301.258524,248.770800
305.195799,249.138824
308.542745,250.494863
310.830181,253.585938
311.041399,257.561783
309.947118,261.317277
306.457392,262.961698
302.461422,263.048591
298.458534,263.053500
294.477888,262.790917
290.480646,262.718479
286.564661,263.529567
281.790140,266.217632
277.958942,267.043603
273.985621,267.050462
270.012299,267.057322
266.084586,267.237478
262.168369,267.210183
256.208449,266.515428
252.636226,266.051519
249.883912,264.604182
246.962136,262.165848
242.070703,258.861522
238.169723,258.087798
234.438946,256.893441
232.685144,253.527100
234.866208,250.476112
240.471795,247.690679
245.242574,246.600036
248.611183,248.494456
252.668363,248.941755
256.363281,247.738574
258.852603,244.637839
261.642669,241.773070
263.616193,238.345715
263.294150,234.391639
261.821029,230.683676
264.148624,228.987671
267.456405,231.213940
271.307568,231.756419
273.620335,228.684500
277.356932,228.500951
280.884651,230.375217
284.654211,231.679672
287.769243,234.146511"/>

<polyline fill="none" style="stroke:rgb(30.0%,64.99999999999994%,40.0%);stroke-width:0.5" points="
286.500871,232.716864
289.769215,234.887457
292.211558,237.999388
294.262863,241.395602
296.354671,244.766751
301.258524,248.770800
305.065195,249.724376
308.158816,251.031452
310.465613,253.724390
311.710547,259.594846
309.468330,262.561029
306.457392,262.961698
301.601334,263.053687
297.657197,263.342854
293.721319,263.726496
289.809495,263.065285
285.676565,264.335372
281.543635,265.605459
277.947705,266.924140
273.988380,266.810490
269.996016,266.757834
266.084586,267.237478
262.168369,267.210183
258.892682,266.968554
256.208449,266.515428
252.645417,266.022961
247.808274,263.379578
244.824120,260.772075
241.587382,259.159917
238.350643,257.547758
235.964566,255.410314
236.900222,252.597292
241.498547,249.888592
245.213971,247.766874
248.771859,247.763052
252.572444,248.107315
256.020573,247.141374
258.718277,244.518023
261.261706,241.481087
262.777961,238.114951
262.617324,234.525224
263.194293,231.202700
267.604671,230.664860
271.063046,230.832904
274.067260,229.666823
277.225825,229.330011
283.048921,230.792591
286.500871,232.716864"/>

<polyline fill="none" style="stroke:rgb(31.666666666666664%,65.83333333333327%,40.0%);stroke-width:0.5" points="
286.411063,232.872819
292.089632,238.086733
294.313970,241.364171
296.541263,244.615977
301.146930,248.983248
304.897281,250.205929
307.780383,251.607890
309.855525,254.046474
310.836243,259.381628
308.654990,261.337986
306.388032,262.487196
303.777139,263.026659
299.781908,263.379524
295.796046,263.780061
292.000610,262.475798
288.045008,262.940380
284.175909,263.995712
280.394966,265.376294
276.457722,266.047889
272.478143,266.579774
266.084586,267.237478
262.173489,267.090293
258.924359,266.730663
256.244782,266.278194
252.723057,265.764428
247.929559,263.208146
244.824120,260.772075
241.883459,258.638419
239.139696,256.734693
238.679595,253.370724
241.498547,249.888592
244.583244,247.554097
248.394012,248.197674
252.283808,248.879681
255.913104,247.365833
258.654820,244.433696
260.972304,241.204370
261.924656,237.352059
260.305069,233.738530
259.145885,230.065823
262.327195,228.630236
266.061121,230.121225
269.816150,231.207957
273.493322,229.672502
277.401791,229.134297
282.892872,231.149898
286.411063,232.872819"/>

<polyline fill="none" style="stroke:rgb(33.33333333333333%,66.6666666666666%,40.0%);stroke-width:0.5" points="
287.039433,231.237518
289.888635,233.949452
292.055790,237.315851
294.730727,240.300001
296.950045,243.629514
299.033038,246.332093
301.116031,249.034672
304.390737,251.259717
306.891507,252.815774
308.867802,254.481707
309.211745,258.688210
306.124473,261.785085
303.725151,262.731252
299.781908,263.379524
295.799563,263.750268
292.000610,262.475798
288.054666,262.895815
284.287791,264.267834
280.519326,265.635484
276.551460,266.042950
272.600486,266.710526
268.620732,267.050610
266.084586,267.237478
262.177939,267.030458
258.945913,266.582221
256.276747,266.101085
252.958690,265.084100
248.498421,262.398217
245.422712,259.983540
242.605149,257.757218
240.593920,255.783727
242.395658,250.815513
244.899357,248.742630
248.388530,248.227168
252.283808,248.879681
255.913104,247.365833
258.585077,244.376811
260.594247,241.021523
261.685001,237.357551
260.305069,233.738530
259.773111,230.261597
262.332649,229.410181
266.061121,230.121225
269.783114,230.518761
273.493322,229.672502
279.349272,229.153903
283.240952,230.061193
287.039433,231.237518"/>

<polyline fill="none" style="stroke:rgb(35.0%,67.49999999999994%,40.0%);stroke-width:0.5" points="
285.719013,229.940376
288.746356,232.429443
292.008010,237.352141
294.427169,240.544801
296.876852,243.681885
298.890334,246.441799
301.116031,249.034672
304.307888,251.384757
306.648187,253.120315
308.982822,258.616635
306.124473,261.785085
303.725151,262.731252
299.768327,263.260306
295.839766,263.242000
291.969701,262.894545
288.125701,263.218070
284.287791,264.267834
280.519326,265.635484
274.353211,266.467185
270.444433,267.047697
266.084586,267.237478
262.526023,267.050706
258.603518,266.619171
253.071301,264.838713
248.532400,262.348767
245.422712,259.983540
241.299826,257.358971
239.406067,254.234201
241.683293,251.226045
245.230528,249.579157
248.432012,248.945123
252.283808,248.879681
256.059531,246.132513
257.953894,242.657321
258.511374,238.841806
256.532609,235.414817
254.867171,231.850497
255.524087,228.202591
258.950826,228.206205
262.331895,229.589907
266.056668,230.150893
270.284923,230.384670
274.044585,229.173816
277.986397,228.961758
281.945584,228.950644
285.719013,229.940376"/>

<polyline fill="none" style="stroke:rgb(36.666666666666664%,68.33333333333327%,40.0%);stroke-width:0.5" points="
285.719013,229.940376
288.112563,232.932704
291.786071,237.505889
293.966159,240.879872
296.261925,244.161670
298.445525,246.798227
300.683873,249.493075
303.780349,252.038053
305.717689,253.923812
308.628873,258.551257
307.257484,261.656055
303.725151,262.731252
299.481260,263.436460
295.510714,263.791460
291.554427,263.172560
287.589468,263.491785
283.729702,264.507582
280.497723,265.548115
276.011818,266.545760
272.048151,267.045191
266.085277,267.147481
262.554062,266.782202
258.679742,266.206218
253.166481,264.618394
248.648808,262.173995
245.489040,259.883572
242.120458,258.390589
238.309216,257.332384
238.528515,254.088880
241.828748,251.416883
245.230528,249.579157
248.432012,248.945123
252.909948,247.853335
255.917384,245.263256
256.677995,241.433166
255.469491,237.644806
252.993436,234.519202
251.220945,231.043697
252.764880,227.668035
256.632192,227.543383
260.490468,228.566185
264.375785,229.283574
267.673013,227.357528
271.351503,226.630607
274.680053,228.782470
278.646634,228.957853
281.945584,228.950644
285.719013,229.940376"/>

<polyline fill="none" style="stroke:rgb(38.33333333333333%,69.1666666666666%,40.0%);stroke-width:0.5" points="
287.612025,231.630848
289.776929,234.998463
292.435472,237.998308
294.701611,241.294217
296.749268,244.741860
299.355276,247.777982
303.720010,252.104827
305.284823,254.190060
305.851961,258.247325
303.339867,261.564483
299.397058,262.842415
295.517191,263.251542
291.554427,263.172560
287.650202,263.846625
283.762762,264.622937
280.497723,265.548115
275.969949,266.248771
272.002831,266.597567
266.090039,267.027576
262.578016,266.603807
258.770622,265.796170
253.393930,264.063176
248.786510,261.941802
246.253923,260.496607
242.289954,260.064421
238.279619,260.054249
235.841420,257.294773
236.345961,253.458697
239.674716,251.368815
243.514187,250.267123
247.476010,249.648783
251.289523,248.515800
255.080755,244.859882
255.468530,241.635219
254.065944,238.507396
251.500178,235.280885
251.220945,231.043697
253.384323,228.796306
256.605198,227.842138
260.490468,228.566185
264.335417,228.485221
266.996925,225.608435
270.395672,224.971231
273.362216,227.662231
277.065887,228.959019
281.034800,228.485287
284.909660,228.762016
287.612025,231.630848"/>

<polyline fill="none" style="stroke:rgb(40.0%,69.99999999999993%,40.0%);stroke-width:0.5" points="
287.021647,232.093400
289.392770,235.286244
291.945336,238.394065
294.327562,241.544322
296.602506,244.846075
299.201041,247.920500
303.295974,252.485697
305.042167,254.307854
306.690188,257.938841
304.942691,261.262947
301.316339,262.779645
297.413356,263.507880
293.501292,264.187491
289.630986,265.026361
285.768195,265.893954
281.811977,266.058420
277.841331,266.048437
271.990114,266.448108
266.098773,266.697692
262.623359,266.307265
258.778523,265.767229
253.393930,264.063176
248.786510,261.941802
246.134065,260.867733
243.249160,260.141265
239.336969,260.668173
235.481429,260.527364
232.206171,258.418178
231.650694,254.845904
234.737923,252.554037
238.491357,251.265550
242.272339,250.093000
246.200527,249.524580
249.952148,248.266714
253.083043,245.939399
252.751210,242.333485
250.056080,239.419740
248.950955,235.638195
249.817196,231.881306
253.628005,229.244016
256.621647,228.021298
260.451385,227.789453
263.049706,226.013668
266.523404,224.474892
270.395672,224.971231
277.018529,229.224487
281.051568,229.024997
284.568620,229.625685
287.021647,232.093400"/>

<polyline fill="none" style="stroke:rgb(41.666666666666664%,70.83333333333326%,40.0%);stroke-width:0.5" points="
286.733683,232.356306
289.345506,235.323205
291.898239,238.431239
294.327562,241.544322
296.697578,244.772855
299.201041,247.920500
302.646893,251.683708
305.042167,254.307854
306.690188,257.938841
305.014226,261.508325
301.299201,262.722145
297.322603,263.574372
293.511579,264.750764
289.832546,266.277921
286.499282,268.479908
282.657379,268.013354
278.799688,267.048165
274.802397,267.047843
270.805108,267.050416
266.840107,266.675156
262.647982,266.128965
258.866303,265.387238
253.466606,263.866167
248.786510,261.941802
243.950432,260.391333
240.003462,260.976273
236.012708,261.055588
232.281428,259.881968
230.630053,256.424702
233.062749,253.382539
238.491357,251.265550
242.272339,250.093000
246.200527,249.524580
249.694262,247.862751
251.370254,245.413173
251.494482,242.714166
249.102496,240.091802
247.711347,235.468384
249.817196,231.881306
252.085084,230.247125
255.595558,228.348204
258.770885,225.941410
262.381239,224.367753
266.341775,223.951629
270.395672,224.971231
273.707101,227.097859
277.018529,229.224487
280.975095,229.801016
284.265872,230.342871
286.733683,232.356306"/>

<polyline fill="none" style="stroke:rgb(43.33333333333333%,71.66666666666659%,40.0%);stroke-width:0.5" points="
286.010827,233.117849
288.720606,235.884379
291.534727,238.744504
294.327562,241.544322
296.697578,244.772855
299.155337,247.959373
302.580654,251.744636
305.017151,254.324413
306.658141,257.513351
305.306926,261.037697
301.790697,262.820739
297.966859,263.858114
294.393107,265.464129
292.695610,268.997145
289.898157,271.521081
285.973748,271.427958
282.053781,270.756635
279.788958,267.730383
276.591964,266.048554
272.614965,266.044473
268.637929,266.050189
264.660889,266.050600
260.703139,265.825124
256.936239,264.575730
253.188670,263.245246
249.446616,261.898743
245.725939,260.494758
240.003462,260.976273
236.025580,260.966513
232.553920,259.562372
230.898291,256.455502
234.509883,251.968215
238.380459,251.108826
242.298139,250.424261
246.185818,249.600511
250.020993,248.648717
252.240215,245.527479
251.739510,241.688912
248.777610,239.034866
246.779437,235.707492
248.166292,232.309495
251.545159,230.230088
255.161000,228.597879
258.865047,226.094788
261.609008,224.223829
265.346078,223.619170
269.193712,224.496797
273.369937,227.665041
277.018529,229.224487
280.932353,230.037140
283.813127,231.117869
286.010827,233.117849"/>

<polyline fill="none" style="stroke:rgb(44.99999999999999%,72.49999999999991%,40.0%);stroke-width:0.5" points="
285.928759,233.205383
289.465876,236.417142
291.534727,238.744504
294.259232,241.602897
296.402960,244.979578
298.612889,248.385530
302.448440,251.866782
304.817490,254.457493
305.705441,257.621210
304.643735,260.523796
301.790697,262.820739
296.866206,265.308893
296.044011,269.128228
295.984986,273.101162
293.525925,275.937052
289.793345,277.318451
285.918544,277.909165
282.035641,277.097507
279.060358,274.636812
277.803060,270.890522
275.236283,267.976029
271.379932,267.055835
267.400442,267.053881
263.420403,267.052999
259.499936,266.374871
255.769699,264.991118
252.169616,263.325318
248.521500,261.747180
244.280601,260.927629
240.039702,260.108078
236.787248,259.401940
235.109315,256.403645
236.289996,253.754284
238.607145,251.822013
242.298139,250.424261
246.185818,249.600511
250.003973,248.624012
252.553205,245.630657
252.223703,241.450007
249.926903,238.167668
249.170305,235.500905
251.988794,230.906281
255.016074,228.536091
258.215636,226.183027
261.281486,223.658642
265.154933,223.621124
268.998869,224.902410
273.369937,227.665041
277.009591,229.253124
280.788692,230.526487
283.606480,231.448595
285.928759,233.205383"/>

<polyline fill="none" style="stroke:rgb(46.666666666666664%,73.33333333333326%,40.0%);stroke-width:0.5" points="
285.316566,234.020633
288.862150,237.043475
291.302651,238.978881
294.048120,241.771207
296.377703,244.995767
298.612889,248.385530
302.274047,252.031582
304.193317,254.816194
304.896963,257.650755
304.399037,260.350240
302.778811,262.336155
299.299517,264.284831
296.554053,267.020908
296.860256,270.815917
298.651421,274.365382
297.416800,277.882080
293.766126,279.441224
290.019603,280.802798
286.047614,281.054191
282.115674,280.621898
279.553054,277.670901
278.186792,273.937130
277.145292,270.130266
274.884794,268.569790
271.303193,267.922286
267.386343,267.743690
263.418032,267.082905
259.588975,266.088498
255.929578,264.602739
252.291717,263.051290
248.629096,261.435300
244.427946,260.222890
240.285467,259.180371
237.513585,256.115131
239.459336,252.898857
242.593408,251.273948
246.388371,250.721518
250.507553,249.509827
253.190830,245.798387
252.955240,241.179494
251.475595,237.517759
252.393110,231.264223
255.016074,228.536091
258.215636,226.183027
261.358272,223.885980
265.132940,223.769498
268.998869,224.902410
273.251469,227.873703
276.736163,229.951504
280.454795,231.426331
283.009207,232.557952
285.316566,234.020633"/>

<polyline fill="none" style="stroke:rgb(48.33333333333333%,74.16666666666659%,40.0%);stroke-width:0.5" points="
283.921303,232.859387
286.988893,235.347918
288.862150,237.043475
291.101736,239.201665
293.866417,241.927990
296.353051,245.012863
298.612889,248.385530
302.070791,252.209255
304.193317,254.816194
304.896963,257.650755
301.675909,262.514718
298.069432,264.144370
296.554053,267.020908
298.040838,270.941687
299.350464,274.683641
299.669415,278.612879
297.336766,281.645050
293.619639,282.900844
289.772767,283.819472
285.831735,283.937927
282.089196,282.705097
278.670920,280.690221
275.723108,278.074149
274.275245,274.479435
273.706573,270.622339
270.194145,269.377819
266.277361,269.438646
262.920197,267.425498
259.661746,265.891582
256.133230,264.135202
252.419779,262.747165
248.825829,260.965008
245.134298,258.878795
243.656719,256.422076
243.337275,255.110969
246.635712,251.427590
250.472873,249.460865
253.190830,245.798387
253.606968,241.079858
252.571260,237.344716
253.728993,232.117397
256.097772,229.781985
259.092394,227.362919
261.821838,225.280943
264.969243,225.410970
268.413144,226.314841
272.753312,228.694224
276.556519,230.363847
280.443088,231.453952
283.921303,232.859387"/>

<polyline fill="none" style="stroke:rgb(49.99999999999999%,74.99999999999991%,40.0%);stroke-width:0.5" points="
283.618827,233.342345
286.662987,235.740168
288.643157,237.290273
290.975948,239.330418
293.496144,242.233092
295.807896,245.435686
298.472325,248.497953
302.070791,252.209255
304.059538,254.884036
304.808387,257.634825
303.790701,260.427375
301.486024,262.282498
298.775736,264.793306
298.703646,270.752221
299.350464,274.683641
299.583146,278.587236
298.392142,281.648894
295.455122,284.267956
292.292349,286.666793
289.315228,289.377490
285.608227,290.636811
282.433592,288.506221
279.873248,285.396907
277.688262,282.026565
275.744528,278.546031
274.060402,274.904044
273.887942,270.882990
270.540776,268.043178
267.077809,266.987822
263.777295,265.542645
260.240076,264.444146
256.382764,263.460364
252.711386,262.056190
249.023114,260.560676
245.134298,258.878795
243.105599,255.417987
245.606550,252.442337
250.472873,249.460865
253.356706,245.868096
254.175726,241.043958
253.588289,237.274544
254.127731,232.382817
256.602853,230.376278
259.758885,228.323869
262.434884,227.352016
268.068597,227.400068
272.535462,229.155328
276.425413,230.762787
280.299617,231.848645
283.618827,233.342345"/>

<polyline fill="none" style="stroke:rgb(51.66666666666666%,75.83333333333324%,40.0%);stroke-width:0.5" points="
283.296139,233.917910
286.607008,235.810638
288.448959,237.518921
290.851512,239.460435
293.472652,242.251749
295.784442,245.454393
298.406159,248.558960
302.047866,252.228606
304.032445,254.896918
304.778421,257.633399
302.011476,262.150972
298.898224,264.581008
297.777881,270.839836
298.094391,274.780916
297.559914,278.155562
296.737596,280.743297
295.310385,284.116233
293.438479,286.902381
291.752554,290.481245
290.547670,294.250913
289.218023,297.960110
286.343190,300.597070
282.634662,301.910475
278.678320,302.050899
274.886058,301.136979
272.507962,298.101740
272.193802,294.224640
273.135027,290.384672
274.503946,286.660184
275.579544,282.856097
275.646806,278.945578
274.060402,274.904044
273.621471,271.020695
270.583558,267.963998
267.249150,266.507489
263.819098,265.430162
260.348171,264.100828
256.691822,262.615382
253.228578,260.940760
250.229499,258.744499
249.126719,256.465143
248.772260,254.413851
251.507268,250.416102
253.636313,245.976248
254.564990,241.064541
254.727972,237.292658
256.026723,233.410515
260.666619,230.250408
267.830241,228.850501
272.325935,229.749225
276.345708,230.989163
280.059995,232.463529
283.296139,233.917910"/>

<polyline fill="none" style="stroke:rgb(53.333333333333336%,76.66666666666657%,40.0%);stroke-width:0.5" points="
283.153171,234.181597
286.204470,236.333579
290.470981,239.884761
292.935023,242.684209
295.553013,245.645209
298.180904,248.757059
301.446703,252.725529
303.215896,255.340922
301.835706,261.987593
299.050580,264.676825
297.345652,269.476286
297.606402,273.407233
297.613630,277.341206
296.497671,281.136152
294.922430,284.772490
294.102378,288.634215
293.591443,292.564426
292.906998,296.474800
291.466488,300.093267
288.316017,302.389063
284.442188,303.220333
281.290513,305.378131
278.932286,308.556216
276.020750,311.213343
272.241582,311.725224
270.036867,308.701169
270.008795,304.737514
271.083373,300.931299
272.034461,297.092171
272.402676,294.246072
273.221244,290.410484
274.360402,286.616725
275.046045,282.772621
275.617368,278.951358
274.908960,274.712496
273.813009,270.934699
270.917874,267.502497
267.539520,265.783693
264.043460,264.746076
260.565056,263.541410
257.225519,261.609075
254.211565,259.505784
252.459385,257.287512
251.605755,254.917793
253.114703,251.224609
255.045005,246.395549
256.194816,241.318878
256.705228,237.652614
257.910657,234.746392
261.414039,231.953535
264.611743,231.121887
267.809447,230.290240
272.102789,230.744385
276.135995,231.646401
279.938909,232.770463
283.153171,234.181597"/>

<polyline fill="none" style="stroke:rgb(55.00000000000001%,77.4999999999999%,40.0%);stroke-width:0.5" points="
282.500380,235.328868
285.591151,237.185647
289.883644,240.485287
292.389367,243.153918
294.944068,246.179315
297.574460,249.247545
300.395553,253.419140
300.359044,261.125845
298.227070,264.127549
296.448814,269.419018
296.856847,273.398984
296.342311,277.123857
295.360013,280.754878
294.006752,284.484208
293.244429,288.489915
292.731323,292.433695
292.038739,296.238304
290.511512,299.419275
287.702894,300.825909
283.927475,301.812823
280.153005,304.101867
277.214290,306.881126
274.748070,309.297599
271.153801,313.273426
267.870976,315.469954
264.155976,314.861640
262.964747,311.151134
263.984289,307.294007
266.376565,304.091549
268.426399,300.651772
270.643377,297.386066
272.489731,293.907362
273.221244,290.410484
274.214490,286.581941
274.957258,282.757894
275.107375,278.953152
274.615405,274.774247
273.705739,270.988401
270.748501,267.712756
267.481628,265.922055
264.162999,264.438779
261.028138,262.632920
258.009025,260.510306
256.052985,258.133837
254.962666,254.808767
254.905253,251.712664
256.288637,246.737318
257.457738,241.581331
258.572815,238.305646
262.406025,233.735135
265.089316,232.637580
267.969621,231.992635
271.892868,232.047582
275.886924,232.727930
279.508134,233.825570
282.500380,235.328868"/>

<polyline fill="none" style="stroke:rgb(56.66666666666668%,78.33333333333323%,40.0%);stroke-width:0.5" points="
281.976731,236.307560
285.041301,238.044568
289.439663,240.973629
292.056284,243.456488
294.739771,246.355839
297.381979,249.390886
300.226652,253.480893
301.597647,259.338723
299.126655,262.480071
296.935804,265.813723
296.043964,269.695464
296.045433,273.705664
295.957397,277.708862
295.165250,281.632207
294.245948,285.522070
293.552382,289.471839
293.036889,293.437637
292.857415,297.432264
290.746659,300.673059
286.999314,301.941853
283.122271,302.903049
280.291380,305.688470
278.468011,309.255478
276.590991,312.733234
272.911414,314.151392
269.129615,315.394365
265.603360,317.288904
261.720531,317.848836
259.099953,315.251553
259.223875,311.285910
261.121844,307.781581
263.657177,304.682260
266.095968,301.517772
268.302139,298.176388
270.819865,295.123105
272.237884,291.427025
273.216141,287.553173
273.944867,283.612904
273.967067,279.603934
273.964850,275.593734
272.997585,271.715468
270.748501,267.712756
267.903317,265.127023
264.706714,263.436947
261.702576,261.640515
259.552082,259.133793
258.505212,254.379342
259.218714,247.508858
260.878426,242.872895
262.245919,240.521308
265.151707,237.336645
268.764735,235.431064
271.866527,234.864846
275.598845,234.804785
279.000797,235.236947
281.976731,236.307560"/>

<polyline fill="none" style="stroke:rgb(58.33333333333335%,79.16666666666656%,40.0%);stroke-width:0.5" points="
281.581783,237.746774
284.768879,238.611069
289.277811,241.189664
292.139972,243.153416
294.827756,246.085950
297.332541,249.169048
299.380786,253.785462
299.768515,259.004594
298.923536,262.352714
297.356442,265.973142
296.430058,269.750058
296.045433,273.705664
295.957397,277.708862
295.311980,281.663345
294.628638,285.597184
293.967111,289.538145
293.275491,293.463272
292.857415,297.432264
290.865504,303.190643
287.724645,305.630384
285.137005,308.574333
282.715383,311.624711
279.099564,313.189215
275.177380,313.874510
271.306179,314.749849
267.796472,316.609662
264.062923,317.902276
260.139023,317.480524
257.173712,315.069848
256.961296,311.099627
257.670062,307.185047
259.830815,303.894078
262.951210,301.438891
265.278739,298.220300
267.850018,295.234682
270.687376,292.520253
272.440138,288.984356
273.187449,285.075538
274.476289,279.627993
274.500149,275.522721
273.649087,271.488962
272.164049,266.876803
269.980441,263.111360
267.662486,260.246207
266.348297,258.100070
264.987196,253.794535
265.333603,249.021364
266.738170,246.091704
269.669049,242.981504
271.743575,241.573849
276.379567,239.034667
278.880048,238.186286
281.581783,237.746774"/>

<polyline fill="none" style="stroke:rgb(60.00000000000002%,79.99999999999989%,40.0%);stroke-width:0.5" points="
281.922985,242.181692
288.243431,243.185294
291.113080,244.555744
294.205915,246.650585
296.744673,249.530302
299.035564,253.887088
299.768515,259.004594
298.923536,262.352714
297.553112,267.879991
297.044166,271.828912
297.038120,275.821398
296.860069,279.799329
296.177146,283.732977
295.493480,287.666498
294.806883,291.599507
293.816040,295.456927
293.098084,299.375637
292.035671,303.189097
289.465536,306.227199
286.656565,309.062312
283.610760,311.569548
280.007123,313.042322
275.177380,313.874510
271.306179,314.749849
267.607569,316.136041
264.048322,317.004479
260.655350,316.331548
258.143679,314.374909
256.002694,310.221310
253.537525,307.096774
252.574833,303.507552
256.019382,301.968412
260.008950,301.879697
263.558664,300.356626
265.278739,298.220300
267.936711,295.317652
270.687376,292.520253
272.525296,289.013472
273.940323,285.277852
275.432463,279.709773
275.274193,275.427254
274.648355,271.288177
273.310459,266.354062
271.120840,262.389321
269.544477,259.192717
268.488334,253.746716
269.300426,250.302023
272.279528,246.340603
278.198861,243.540710
281.922985,242.181692"/>

<polyline fill="none" style="stroke:rgb(61.66666666666669%,80.83333333333323%,40.0%);stroke-width:0.5" points="
282.168243,243.383973
287.961233,243.845777
290.425185,245.610657
292.890466,248.048567
295.386064,250.614519
298.215772,254.252732
299.529368,258.985091
298.777943,262.316626
297.523643,267.874372
297.044143,274.091854
296.681292,279.778408
295.970510,283.695560
294.910238,287.527640
293.724719,291.352605
292.876422,295.260267
291.991794,299.100726
290.962228,302.727313
290.889586,308.729557
291.701483,312.553809
290.603601,316.317333
287.780450,318.996951
284.200480,320.663363
280.304338,320.681333
276.499346,319.619394
273.089109,317.677677
269.654589,315.733567
264.064860,315.174738
261.274183,314.899642
258.755373,313.680986
255.544695,310.488301
253.352870,307.203281
253.164609,303.723957
255.509789,300.965257
259.373676,299.628646
262.207557,298.268751
267.354315,294.712752
270.220911,292.143341
272.048823,290.006218
273.825896,285.241715
275.283849,279.689616
275.304044,275.424272
274.824930,271.253277
273.899927,266.131903
272.310280,261.817412
270.989724,258.690687
270.250086,253.901592
271.114478,251.349838
273.936479,248.318138
278.838946,244.862996
282.168243,243.383973"/>

<polyline fill="none" style="stroke:rgb(63.333333333333364%,81.66666666666656%,40.0%);stroke-width:0.5" points="
282.646617,246.132435
287.071932,246.615112
291.870983,249.107509
294.314425,251.530758
296.750679,254.942711
297.820645,258.971592
297.417567,262.088140
297.166393,267.830435
296.357429,274.025901
296.026934,279.692390
295.299721,283.533967
294.274827,287.349227
293.374573,291.269138
292.331150,295.096312
290.711394,298.676891
289.361629,302.477594
289.979423,305.635020
290.597217,308.792446
292.293740,312.040968
294.824408,315.099846
297.493834,317.989081
297.240261,321.784431
294.075339,323.891184
290.095002,324.036977
286.209909,323.221793
282.451580,321.861455
278.609997,320.809129
274.685655,320.072238
270.690974,320.049643
266.694024,320.053751
262.724523,319.732598
258.947527,318.430397
255.814357,316.025495
254.174904,312.397207
252.837640,308.630958
252.057420,304.768783
253.413129,301.080553
256.458840,298.541788
260.138314,297.004472
263.755011,295.373516
267.018431,293.082641
269.812965,290.297584
271.741373,286.803708
273.152707,283.065814
274.526433,279.312352
274.958876,275.361878
274.824930,271.253277
273.986626,266.107760
272.592639,261.716271
272.113021,258.515955
272.767582,254.535466
275.771955,250.256088
279.833787,246.746096
282.646617,246.132435"/>

<polyline fill="none" style="stroke:rgb(65.00000000000003%,82.49999999999989%,40.0%);stroke-width:0.5" points="
286.212524,250.995421
289.876887,251.995293
292.026007,253.691409
293.715448,256.451775
294.738944,259.437189
295.229096,262.065337
295.248944,267.741502
295.249383,273.965519
295.190344,279.619034
294.800569,283.429500
294.274827,287.349227
292.274699,295.075983
290.711394,298.676891
290.020953,302.503479
290.328294,305.547227
291.492943,308.447451
293.208488,311.467073
295.180816,314.825717
296.810001,318.214243
296.340945,321.303674
294.027404,323.749059
288.063568,323.007162
284.231862,321.933585
280.263440,321.382381
276.523172,322.641278
273.389059,325.135365
270.306010,327.694514
267.225615,330.265522
263.683135,331.988911
259.811135,331.076885
256.699932,328.624851
255.957128,324.734410
255.956179,320.716616
255.955993,316.698822
255.166390,312.052650
254.079292,308.281152
253.134622,304.845435
253.854251,301.334107
256.458840,298.541788
260.114376,296.949455
263.755011,295.373516
266.960671,293.013620
269.305581,289.924161
271.420542,286.640666
273.152707,283.065814
274.438910,279.291390
274.958876,275.361878
274.824930,271.253277
275.028735,266.033005
275.803257,261.732833
276.447834,259.239211
277.577694,256.847929
279.655870,253.876852
282.098908,251.809199
286.212524,250.995421"/>

<polyline fill="none" style="stroke:rgb(66.66666666666671%,83.33333333333321%,40.0%);stroke-width:0.5" points="
285.895966,256.263801
289.205055,257.064273
292.402457,260.368290
294.559971,267.774134
294.441135,273.920345
294.740987,279.594980
294.502363,283.396784
294.127549,287.320780
293.201124,291.198381
292.274699,295.075983
291.352058,298.528954
291.043999,302.525128
291.658832,306.447888
293.777160,309.843847
296.544606,312.694055
299.606365,315.276928
301.227608,318.903020
301.697889,322.865915
298.821523,325.454289
295.030402,326.710130
291.199500,325.766916
287.842009,323.566663
284.325149,321.677519
280.389602,321.212651
276.822802,322.868749
273.843033,325.563675
271.153681,328.525960
269.187209,332.020999
266.760855,335.209504
264.047049,338.021066
261.364121,340.852562
258.384256,343.378819
254.814244,342.816038
253.954016,339.012240
254.755503,335.105193
256.079536,331.312151
256.699932,328.624851
257.452257,324.773100
257.756169,320.720433
257.539841,316.559181
256.445195,311.726157
255.182462,307.993919
254.873277,304.780722
255.346731,301.959065
256.785571,298.932509
259.982556,296.646926
263.531072,294.983194
266.681341,292.741510
269.208013,289.854312
271.058846,287.367088
273.152707,283.065814
274.584726,279.326562
275.497676,275.397507
275.754911,271.259042
276.297793,266.258666
277.609269,262.284314
279.991735,258.669462
282.020327,257.160763
285.895966,256.263801"/>

<polyline fill="none" style="stroke:rgb(68.33333333333339%,84.16666666666654%,40.0%);stroke-width:0.5" points="
288.839968,263.863295
292.705945,268.345913
294.231153,273.922911
293.784042,279.528900
293.132510,283.233265
292.471026,287.040931
291.791288,290.906214
291.271441,294.897520
290.966516,298.470335
290.924187,302.531611
291.658832,306.447888
295.550571,311.375038
298.845510,313.506751
301.634368,316.125544
301.877283,320.000111
300.787649,322.477572
298.570071,325.081623
293.837414,328.241685
291.744175,331.565012
288.422182,332.745179
286.056793,329.855332
285.525196,325.931936
282.990559,323.034823
279.106415,323.005518
275.548166,324.762369
272.405079,327.188883
268.689163,331.686429
266.389251,334.905769
263.981685,337.959202
260.330091,342.884138
258.162870,346.213135
256.286709,349.698023
254.434163,353.196609
250.872937,354.799280
248.454644,352.026428
248.166847,348.107772
249.567245,344.410481
251.642523,341.021410
253.575129,337.568069
254.790573,333.783349
256.459579,330.186632
257.153852,324.742982
257.156188,320.715808
257.033215,316.617260
256.416359,311.734434
255.388135,307.951525
254.963241,304.783041
256.589985,299.038321
259.955820,296.927834
263.602448,295.354088
266.679436,292.858790
269.208013,289.854312
270.956305,287.304755
273.289179,283.128020
274.728053,279.370803
275.792933,275.450245
276.846928,271.449537
278.511027,267.333953
280.836622,265.034414
283.294568,263.764677
285.713276,263.310918
288.839968,263.863295"/>

<polyline fill="none" style="stroke:rgb(70.00000000000006%,84.99999999999987%,40.0%);stroke-width:0.5" points="
285.648016,266.399970
290.899973,269.416586
292.832791,274.102137
293.127161,279.466167
292.630053,283.145876
292.174531,286.995410
291.613465,290.878308
291.122243,294.882038
290.756913,298.457590
290.924187,302.531611
291.932961,306.326027
295.471038,310.656980
299.307384,311.664086
303.249757,312.053333
306.677395,313.986856
309.761710,316.475952
312.329435,319.503742
314.436779,322.830937
313.122240,326.191867
309.213061,326.671891
305.262477,326.454426
301.313311,326.709111
297.382286,326.229115
293.279131,326.866253
290.746310,326.390248
289.353937,326.102674
286.905133,324.638072
283.063718,322.870368
279.106415,323.005518
275.548166,324.762369
272.405079,327.188883
269.963468,330.795063
268.692907,334.566030
266.992583,338.148847
264.051607,340.730404
259.759610,342.132856
256.520751,342.873832
255.163471,342.370804
252.740077,341.117254
251.953974,337.449422
252.621810,333.555656
254.136639,329.877233
255.570591,326.165741
256.820387,322.405138
256.963488,318.435519
256.793444,315.067562
256.623400,311.699605
255.797671,307.858613
255.532126,304.818510
257.533323,299.730209
260.190866,297.311070
263.602448,295.354088
266.679436,292.858790
270.086401,289.378347
272.190922,286.003275
273.977869,282.452035
275.257899,278.684772
275.964030,274.766193
277.073114,271.529724
279.813238,268.437216
282.088833,267.113918
285.648016,266.399970"/>

<polyline fill="none" style="stroke:rgb(71.66666666666673%,85.8333333333332%,40.0%);stroke-width:0.5" points="
285.021557,271.067459
288.426428,272.066803
291.011924,274.704425
291.931291,279.372960
291.246296,282.881965
290.354065,286.814509
290.097185,290.674013
289.568477,294.744375
289.622484,298.540444
290.658828,302.581040
291.932961,306.326027
294.379788,308.474977
296.826616,310.623927
300.805901,310.976373
304.747160,311.695186
308.302193,313.501022
311.230983,316.194383
313.300874,319.616641
315.552821,322.889474
314.499735,326.401343
310.598243,327.041801
306.588879,327.046224
302.579515,327.045809
298.606519,326.621846
293.270753,326.506478
290.694444,326.660299
287.038320,325.272168
283.537926,323.364174
279.592869,323.286145
275.967333,324.908592
272.985065,327.580559
270.479820,330.689964
270.043044,334.647785
270.020427,338.655292
268.467867,342.246660
265.663498,345.111842
262.216371,346.920604
258.227093,346.888533
254.735624,345.132054
252.419022,341.880499
251.104440,338.125798
251.176561,334.145904
252.562651,330.405324
254.554897,326.927404
256.429959,323.408270
257.203252,318.443484
257.692673,315.030601
257.486924,311.593753
256.810405,307.738135
256.990682,305.000024
258.604133,300.392568
260.659889,297.856105
263.686708,295.478184
266.740222,292.925160
270.086401,289.378347
272.279554,285.524981
273.653512,281.759672
274.462128,277.835903
276.245035,274.869402
278.745393,273.093705
281.633329,271.662222
285.021557,271.067459"/>

<polyline fill="none" style="stroke:rgb(73.3333333333334%,86.66666666666654%,40.0%);stroke-width:0.5" points="
284.220845,277.129765
286.764591,278.044753
288.633429,280.306943
289.583629,282.935360
290.085692,286.785808
289.798825,290.642721
289.568477,294.744375
289.771433,298.522817
290.864653,304.162522
293.102850,307.435670
296.325723,309.763803
300.125207,310.911988
304.116433,310.955957
308.074019,311.315536
311.027026,313.881841
312.391723,317.634481
312.819443,322.777357
310.403093,326.228332
306.588719,327.016224
302.619815,326.537478
298.623784,326.232262
293.271482,326.116512
287.349078,324.492211
284.119887,324.042792
280.890696,323.593373
277.192594,325.055685
274.390099,327.812053
274.041172,331.774491
274.033296,335.768552
272.956909,339.594393
270.712274,342.886577
268.544902,346.238391
265.158785,347.984025
261.207166,347.554547
258.256418,346.772176
255.101876,344.695316
252.419022,341.880499
251.104440,338.125798
250.969008,332.990463
252.283422,329.303779
254.842369,326.241962
256.156498,322.361478
257.470626,318.480993
257.782587,315.034542
257.785761,311.568158
257.800030,307.715401
260.172508,301.442706
262.084584,299.397611
265.047136,296.869812
267.479295,293.581571
270.348982,289.578201
272.921357,285.850941
274.926383,282.285620
277.033209,279.462883
280.589243,277.317272
284.220845,277.129765"/>

<polyline fill="none" style="stroke:rgb(75.00000000000007%,87.49999999999987%,40.0%);stroke-width:0.5" points="
283.888258,283.777486
285.740493,285.262291
287.440996,287.399769
288.600557,290.674476
288.788502,294.740644
288.763915,298.679553
290.360533,304.355765
292.673673,307.854960
296.325723,309.763803
300.212501,310.107055
304.145556,310.597205
307.903247,311.699233
310.170453,314.435428
311.061292,317.860191
311.000038,322.400827
309.698724,325.457137
304.922372,328.038583
300.938466,328.028970
297.109317,326.982924
293.317669,325.850541
287.349078,324.492211
284.115578,324.072481
281.080081,324.315495
278.066655,326.197621
276.097633,328.747954
275.447505,331.874920
274.771808,335.898523
272.956909,339.594393
270.712274,342.886577
268.420425,346.108426
264.229502,348.666072
260.307529,348.700645
256.782011,346.861289
253.747741,344.292775
251.738265,340.864706
251.104440,338.125798
251.176281,333.024192
252.283422,329.303779
254.555301,326.079202
256.156498,322.361478
257.470626,318.480993
257.872445,315.039481
258.591920,311.635814
259.330604,308.016869
261.422467,302.271082
262.991384,300.227162
265.362344,297.147273
267.698584,293.739083
271.301637,290.354810
274.469702,287.332741
277.773136,285.252474
281.421862,283.524777
283.888258,283.777486"/>

<polyline fill="none" style="stroke:rgb(76.66666666666674%,88.3333333333332%,40.0%);stroke-width:0.5" points="
281.616909,289.585729
283.648581,290.660067
286.146845,295.246310
287.392681,298.999093
289.193446,304.828044
292.081012,308.715952
296.325723,309.763803
299.225828,309.957096
304.096181,310.801253
307.334715,312.393707
309.325147,314.889854
309.991371,318.006632
309.535416,322.077084
308.460891,324.511406
304.922372,328.038583
300.133185,329.545764
296.751198,328.153995
294.053451,325.423744
290.159107,324.631360
286.235638,324.033280
282.267146,324.126937
278.615852,325.468430
276.149286,328.538330
275.301574,332.301276
275.701281,336.243883
274.220434,339.885442
272.235613,343.330048
269.924908,346.546459
266.939535,349.120649
263.137953,349.705768
259.223443,349.014552
255.767839,347.224464
253.747741,344.292775
251.738265,340.864706
251.104440,338.125798
251.176281,333.024192
252.473500,329.393033
254.809984,326.237461
257.358207,322.969416
259.068022,318.735350
259.002287,315.189929
259.535413,311.812752
259.973969,308.162134
262.441690,302.955805
266.803625,298.367326
269.618420,295.593050
273.337586,292.871812
276.552748,290.554780
279.318449,289.276980
281.616909,289.585729"/>

<polyline fill="none" style="stroke:rgb(78.33333333333341%,89.16666666666653%,40.0%);stroke-width:0.5" points="
280.522553,293.450240
284.075878,296.332758
285.567417,299.683706
288.281150,305.347119
291.946935,308.915000
296.321049,309.793437
299.211714,310.076263
303.800014,311.522093
305.939692,313.837344
307.996570,318.232845
307.659629,321.673067
304.361791,329.776456
301.061340,331.674591
297.187447,330.694624
294.002718,328.329721
291.280354,325.445627
287.478538,324.286478
283.484422,324.162532
279.584312,325.049377
276.149286,328.538330
275.301574,332.301276
275.107296,336.159142
274.220434,339.885442
272.979562,342.958285
270.509135,346.117712
266.823870,348.812051
263.151142,349.195982
259.309959,348.758788
255.976392,346.968904
253.747741,344.292775
251.738265,340.864706
250.433568,336.269828
250.774038,332.342440
252.701885,328.819670
255.013237,325.544242
257.200559,322.175457
258.297471,318.320708
259.002287,315.189929
259.830828,311.864497
261.155528,308.596332
263.787526,303.857259
267.805329,299.401602
270.702365,297.028575
274.503284,294.759223
277.495272,293.528840
280.522553,293.450240"/>

<polyline fill="none" style="stroke:rgb(80.00000000000009%,89.99999999999986%,40.0%);stroke-width:0.5" points="
283.936221,296.446252
286.203777,299.347564
289.356399,304.635154
292.058886,308.737768
296.144646,310.614238
298.899723,311.358655
302.857622,312.984036
305.111304,318.600140
305.175024,321.266338
304.186115,324.919287
303.197206,328.572236
300.632830,329.654473
298.169659,328.840322
295.438838,326.676538
291.878830,324.303979
287.514141,323.838561
282.546197,324.797539
279.061423,326.597292
277.278112,330.051691
277.037001,333.998187
276.516932,337.909451
274.799990,341.457789
272.630404,344.773271
270.517177,348.106726
269.056801,351.735551
265.530948,352.498967
262.382945,350.130908
259.309959,348.758788
256.278323,346.595765
254.295787,343.925123
252.419656,340.551626
251.329414,336.183558
251.841536,332.646382
253.416546,329.261094
255.740919,326.073498
258.363016,322.856293
260.536538,319.087459
261.453170,315.775781
262.187179,312.569393
263.204948,309.595161
265.668229,305.090964
268.866278,300.461581
271.599561,298.267761
275.141728,296.016162
277.854347,295.200656
283.936221,296.446252"/>

<polyline fill="none" style="stroke:rgb(81.66666666666676%,90.83333333333319%,40.0%);stroke-width:0.5" points="
283.936221,296.446252
286.181471,297.787130
288.516347,301.064350
290.534643,304.563538
292.357380,308.158217
295.628922,311.729811
298.071770,313.019457
300.174691,315.243471
300.317076,318.339628
298.576260,320.882757
297.563721,321.734237
295.932589,322.630649
292.012526,323.360153
288.554453,324.336814
285.096381,325.313475
282.235692,328.055812
280.652217,331.758810
279.811126,335.699273
278.600120,339.545205
277.181824,343.327103
274.725714,346.496246
272.639236,349.946574
270.108880,353.046902
266.345738,353.775581
262.776104,352.020599
259.491743,349.726426
256.206320,347.456047
253.846736,344.242169
252.419656,340.551626
251.185839,336.624263
251.574120,332.680645
253.521260,329.170458
256.482494,326.461216
258.809656,323.316750
260.317219,318.990072
261.654624,315.834789
262.703701,312.726775
263.810713,309.857149
266.469828,305.618877
269.648761,301.248210
272.221569,299.037065
275.203814,296.152710
277.854347,295.200656
283.936221,296.446252"/>

<polyline fill="none" style="stroke:rgb(83.33333333333343%,91.66666666666652%,40.0%);stroke-width:0.5" points="
282.745626,299.132253
286.876056,302.322827
289.073367,305.392262
291.061144,308.969830
294.110121,313.215451
295.603434,315.230131
296.645930,317.799666
296.357225,320.692240
291.992744,323.272359
288.415551,323.940861
285.142904,325.390479
282.630292,328.329109
280.737659,331.787057
279.695493,335.667229
278.011621,339.320736
276.568289,343.011941
274.406144,346.272702
271.513723,349.004503
269.257979,351.969069
266.355901,353.117589
262.776104,352.020599
259.491743,349.726426
256.826892,346.890800
254.906803,343.679875
253.502632,340.195815
252.831400,336.508576
253.090528,333.158429
254.422864,329.867992
256.962339,326.819508
258.809656,323.316750
260.317219,318.990072
261.682663,315.845457
262.788320,312.757426
264.310860,310.130262
267.200446,306.144239
270.819090,302.492400
273.428538,300.567064
276.583827,298.847522
282.745626,299.132253"/>

<polyline fill="none" style="stroke:rgb(85.0000000000001%,92.49999999999984%,40.0%);stroke-width:0.5" points="
282.240731,300.732592
285.843012,303.282325
287.557003,306.304937
289.425237,309.915293
291.805244,314.420690
292.858134,317.713052
290.699808,321.051466
287.838769,322.657177
284.864899,325.036691
282.215864,328.031998
280.737659,331.787057
279.695493,335.667229
277.983983,339.309066
276.015231,342.710338
274.049314,345.998865
271.513723,349.004503
268.998071,351.639197
266.321811,352.699139
260.647003,351.392707
257.561519,348.885115
255.359483,345.577000
253.553194,342.030655
253.280852,336.516932
253.878550,333.345828
254.761181,330.061965
256.962339,326.819508
258.809656,323.316750
260.317219,318.990072
262.369244,316.146974
263.685602,313.175713
265.168890,310.681775
268.186503,307.021610
271.671917,303.499862
274.146876,301.674282
276.994903,300.692267
282.240731,300.732592"/>

<polyline fill="none" style="stroke:rgb(86.66666666666677%,93.33333333333317%,40.0%);stroke-width:0.5" points="
281.328719,304.333786
284.001885,305.446792
286.184815,307.164819
288.176934,310.501832
289.741020,315.149127
290.497916,317.608847
289.662158,320.300036
286.866377,324.960544
284.899615,328.503948
282.635789,331.861665
280.713975,335.414006
279.474703,339.273227
277.845586,342.981292
276.330545,346.737351
273.613562,349.673830
269.835096,350.980095
266.299138,351.050193
261.537360,349.692482
258.680496,347.799460
257.001567,344.704189
256.090307,341.418922
255.855199,336.685123
256.411519,333.974203
257.332919,331.142753
258.729036,327.897453
261.135917,324.431653
263.058458,320.349290
264.482501,317.216745
265.730003,314.250320
270.281432,308.953845
273.594602,305.956106
277.679662,304.193454
281.328719,304.333786"/>

<polyline fill="none" style="stroke:rgb(88.33333333333344%,94.16666666666652%,40.0%);stroke-width:0.5" points="
280.947420,306.245774
284.985870,308.380353
286.644237,311.189698
287.749881,315.581552
287.078315,319.334576
284.827425,323.812420
282.855153,327.366606
281.379037,331.225812
279.737277,335.028819
278.935612,339.088538
277.406525,342.787368
275.285598,346.033496
272.820639,348.620700
269.613451,349.892591
266.376124,350.183868
261.767822,349.171184
259.426665,347.196740
257.744418,344.381495
256.326352,341.375675
255.855199,336.685123
256.488721,333.368519
258.030706,329.627769
260.482501,326.401186
261.913282,322.606813
263.596143,318.915752
266.078418,314.484616
268.411014,311.954781
270.743611,309.424946
274.186073,306.965284
277.965071,305.909719
280.947420,306.245774"/>

<polyline fill="none" style="stroke:rgb(90.00000000000011%,94.99999999999984%,40.0%);stroke-width:0.5" points="
282.886828,310.207924
284.724054,315.727451
284.124980,318.426658
282.922958,323.099157
281.746143,326.909145
280.696272,330.999170
279.737277,335.028819
278.734757,339.027244
277.009266,342.575981
274.622475,345.470505
271.954027,347.182246
269.284490,348.033078
266.511995,348.238643
262.617157,347.382688
258.628957,343.873838
257.167178,341.152679
256.484989,336.699356
256.546205,333.385713
258.030706,329.627769
259.682487,325.989170
261.481135,322.398633
263.596143,318.915752
267.039647,315.341025
269.504058,312.843200
271.388233,310.214703
274.686839,308.280479
278.057585,307.797135
282.886828,310.207924"/>

<polyline fill="none" style="stroke:rgb(91.66666666666679%,95.83333333333317%,40.0%);stroke-width:0.5" points="
280.790229,311.955831
281.699453,315.903515
281.095257,322.774849
280.438983,326.572320
279.166745,330.566458
278.191627,334.655995
277.149482,338.471802
275.508867,341.637355
273.354263,344.069260
271.222400,345.636711
268.927100,346.671027
262.986151,346.497490
258.628957,343.873838
256.269541,339.386605
255.992425,335.447034
256.677404,331.538332
257.305823,327.627011
259.181227,324.163404
261.246084,320.778166
263.644918,317.691871
266.889539,315.420880
269.504058,312.843200
272.228381,311.415929
275.271064,310.513264
280.790229,311.955831"/>

<polyline fill="none" style="stroke:rgb(93.33333333333346%,96.6666666666665%,40.0%);stroke-width:0.5" points="
279.471150,313.134799
280.890561,315.941861
280.606234,319.307539
280.321907,322.673218
279.851372,326.451934
278.877425,330.487127
277.814198,334.557778
276.588673,338.258569
274.773610,341.118360
272.697218,343.328788
270.793025,344.950051
267.223411,346.786066
263.205794,346.607650
259.225831,345.767761
256.780802,342.785502
255.387332,338.954490
255.589663,334.921777
255.993435,330.876165
257.118201,326.983007
259.150090,323.448900
261.445805,320.092044
263.644918,317.691871
267.136917,314.261294
270.495339,311.995327
275.240725,311.051766
279.471150,313.134799"/>

<polyline fill="none" style="stroke:rgb(95.00000000000013%,97.49999999999983%,40.0%);stroke-width:0.5" points="
277.655242,317.491690
280.022484,322.664318
279.496822,326.389549
278.760796,330.458902
277.795053,334.892806
276.813966,338.831262
274.970747,342.423254
272.224449,345.430448
268.731411,347.506839
265.222125,349.499749
261.833757,351.633068
258.103263,350.482598
256.049554,347.096609
255.641179,343.062676
254.957664,339.047632
254.990600,334.975850
255.738371,330.975894
257.118201,326.983007
259.493589,323.690127
262.340628,320.845591
264.392558,318.385502
267.915307,315.399273
271.207847,314.898460
274.349999,315.336573
277.655242,317.491690"/>

<polyline fill="none" style="stroke:rgb(96.6666666666668%,98.33333333333316%,40.0%);stroke-width:0.5" points="
275.850986,319.206528
278.484168,323.053253
279.168841,326.355207
278.591429,332.513181
277.508870,335.591553
276.426311,338.669924
274.519071,342.127451
271.662522,346.691789
269.782169,350.177741
268.581323,353.951169
267.887691,357.859246
266.550779,361.567121
264.335030,364.815923
260.705897,365.799158
257.258770,364.061500
255.987872,360.416082
255.051480,356.578011
253.377507,352.994503
252.962064,349.068063
253.609208,345.154771
254.621375,341.332072
255.526482,335.041818
256.348563,331.132587
258.009497,327.478655
260.217389,324.273887
262.634428,321.101997
264.902600,318.974508
268.548110,317.302342
271.082586,316.961574
273.490936,317.705309
275.850986,319.206528"/>

<polyline fill="none" style="stroke:rgb(98.33333333333347%,99.16666666666649%,40.0%);stroke-width:0.5" points="
276.926288,323.758127
278.092337,326.441025
277.530432,332.312309
277.020643,335.444889
276.288844,338.609912
274.755553,342.004654
272.993737,345.630496
271.769504,349.467193
271.041324,353.443098
271.022718,357.486967
270.032975,361.397746
268.236593,364.987500
264.769840,366.705522
260.809822,366.058454
256.996385,364.834297
254.204055,362.018843
252.253248,358.477371
250.013080,355.111342
249.299949,351.240141
250.504788,347.418355
252.531911,343.976595
254.032813,340.237516
254.955079,336.308999
256.009416,332.419736
258.035628,327.493392
260.217389,324.273887
262.986871,321.581394
265.858719,320.772921
269.091797,319.236353
272.740716,319.694464
276.926288,323.758127"/>

<line x1="220.0" y1="218.0" x2="220.0" y2="214.0" style="stroke:rgb(100.0%,100.0%,100.0%);stroke-width:1.0"/>
<line x1="243.0" y1="218.0" x2="243.0" y2="214.0" style="stroke:rgb(100.0%,100.0%,100.0%);stroke-width:1.0"/>
<line x1="220.0" y1="216.0" x2="243.0" y2="216.0" style="stroke:rgb(100.0%,100.0%,100.0%);stroke-width:1.0"/>

<text x="223.5" y="214.0" style="font-family: Courier;font-size: 6.0;fill: rgb(100.0%,100.0%,100.0%);letter-spacing: 0.0;text-anchor: start">23&#x3BC;m</text>
</svg>
