<?xml version="1.0" standalone="no"?>
<svg width="15cm" height="15cm" viewBox="164 360 77 72" xmlns:xlink="http://www.w3.org/1999/xlink" xmlns="http://www.w3.org/2000/svg">

<rect x="164" y="360" width="77" height="72" style="fill:rgb(0,0,0);stroke-width:0;stroke:rgb(0,0,0)"/>

<polyline fill="none" style="stroke:rgb(0.0%,50.0%,40.0%);stroke-width:0.5" points="
215.693863,387.619702
219.360552,389.309698
222.863785,391.336844
225.751561,394.086329
227.628978,397.660237
229.389154,401.293532
230.027129,405.266432
229.608573,409.241439
227.261044,412.496285
225.101061,415.913731
221.920905,418.363138
218.130195,419.761898
214.144236,420.464810
210.164772,420.438099
206.571920,418.602027
202.936366,416.841173
199.853719,414.380303
199.009766,410.455087
199.277334,406.435406
200.309687,402.538071
201.997718,398.880376
203.717413,395.228942
205.094972,391.445667
207.943010,388.644143
211.723489,387.260792
215.693863,387.619702"/>

<polyline fill="none" style="stroke:rgb(1.6666666666666667%,50.83333333333333%,40.0%);stroke-width:0.5" points="
216.716805,387.410664
220.055893,389.579697
222.641804,391.620209
225.703927,394.122797
228.366646,398.004228
229.673206,401.759849
230.027129,405.266432
229.353448,409.153278
227.463425,413.251533
224.996855,416.364665
221.820968,418.178447
218.130195,419.761898
214.051205,420.938324
210.088568,420.799853
206.420278,419.294428
202.961002,417.301435
199.644317,415.100998
198.303323,411.542690
199.395522,406.456142
200.451391,402.587241
201.350929,400.011758
203.027768,396.403867
203.674415,392.523782
203.646798,388.594936
206.182920,385.645325
209.845128,384.167975
213.616432,384.967482
216.716805,387.410664"/>

<polyline fill="none" style="stroke:rgb(3.3333333333333335%,51.66666666666666%,40.0%);stroke-width:0.5" points="
216.716805,387.410664
220.055893,389.579697
222.641804,391.620209
225.703927,394.122797
228.301537,397.902511
229.754084,401.555074
230.048162,405.486639
229.475844,409.355809
227.013513,412.953144
224.606132,415.870928
221.516757,417.626972
218.302719,420.016100
214.506137,421.043462
210.116590,420.683200
206.533470,419.049343
203.304202,417.661506
200.047302,415.579360
198.513087,411.534540
199.395522,406.456142
200.451391,402.587241
202.690295,396.825168
203.271040,392.997769
203.208571,389.094583
205.556110,386.052551
209.834867,384.915912
213.261361,385.794309
216.716805,387.410664"/>

<polyline fill="none" style="stroke:rgb(5.0%,52.49999999999999%,40.0%);stroke-width:0.5" points="
216.672624,387.489070
219.897318,389.798221
222.586088,391.690883
225.188228,393.517732
227.912906,396.533074
229.424483,400.299177
229.599744,405.451162
228.829442,409.114507
227.581531,412.151658
225.346099,415.519767
221.984518,417.750853
218.059537,419.403429
214.414060,420.148264
210.283543,419.952268
206.799454,418.445313
203.524744,417.201858
200.395121,415.249483
198.662136,411.517794
199.395522,406.456142
200.451391,402.587241
202.748230,396.840767
203.600155,393.021883
204.075173,389.335759
205.657919,386.200979
207.756932,384.753101
211.702030,384.621846
216.672624,387.489070"/>

<polyline fill="none" style="stroke:rgb(6.666666666666667%,53.33333333333332%,40.0%);stroke-width:0.5" points="
219.082190,389.291471
222.491226,391.355750
225.188228,393.517732
227.786537,396.613875
229.424483,400.299177
230.055923,404.682477
229.855566,408.653436
228.428137,412.344734
225.953557,415.443990
222.787347,417.853442
219.343899,419.808980
215.969163,418.010938
212.567504,418.665870
208.941854,419.550878
203.524744,417.201858
198.789713,413.797113
198.581317,409.970252
199.483502,406.475088
200.451391,402.587241
202.948270,396.904658
203.688942,393.036574
204.332345,389.417965
206.104561,386.684627
211.660511,384.857911
215.628053,387.297950
219.082190,389.291471"/>

<polyline fill="none" style="stroke:rgb(8.333333333333332%,54.16666666666665%,40.0%);stroke-width:0.5" points="
218.690406,389.965927
222.074048,391.978946
224.887859,393.852576
227.605724,396.720607
228.870246,400.431160
229.246299,404.705354
228.946614,408.456717
227.742451,411.914152
225.477426,415.032868
223.646902,417.663730
219.318219,419.329852
215.968440,419.695639
212.989078,417.243587
209.372052,416.602853
205.610422,417.819365
201.820987,416.460520
198.651210,414.118914
197.983913,410.153494
199.046279,406.281112
200.025576,402.386558
201.541415,398.712977
202.899529,394.993759
203.668482,391.061308
206.471660,387.232266
211.424771,386.338682
215.243058,387.941592
218.690406,389.965927"/>

<polyline fill="none" style="stroke:rgb(10.0%,54.999999999999986%,40.0%);stroke-width:0.5" points="
218.690406,389.965927
222.074048,391.978946
224.750542,394.011447
227.347870,396.873933
228.664939,399.595009
229.508178,403.475294
229.580379,407.418096
228.395289,411.198259
226.352418,414.550842
223.278673,417.190017
220.060642,419.379884
216.145836,420.052866
212.572454,418.929001
209.393482,415.914087
205.546754,415.692225
202.032554,416.029736
198.728660,414.073099
197.967546,410.465608
198.447929,406.528616
199.052616,402.601294
200.445483,398.920942
202.411694,395.469606
204.018587,391.232755
206.873979,387.968824
211.331696,387.143307
215.151337,388.130493
218.690406,389.965927"/>

<polyline fill="none" style="stroke:rgb(11.666666666666666%,55.833333333333314%,40.0%);stroke-width:0.5" points="
219.829684,390.151587
223.099833,392.531234
227.248636,396.941405
228.664939,399.595009
229.209171,403.498243
228.930328,407.304795
227.959307,410.997492
226.148333,414.374084
223.118687,416.972554
219.747251,418.633037
216.140688,419.723447
212.491907,419.089671
209.168770,416.337233
205.546754,415.692225
202.078484,415.733593
199.235092,413.698427
198.087365,410.459143
199.168631,402.631959
200.445483,398.920942
202.384523,395.456889
204.070124,391.263476
206.949740,388.098277
211.322989,387.383148
215.151337,388.130493
219.829684,390.151587"/>

<polyline fill="none" style="stroke:rgb(13.333333333333334%,56.66666666666664%,40.0%);stroke-width:0.5" points="
219.708898,390.358970
223.079911,392.553664
225.904732,394.944537
228.177319,399.744317
228.969442,403.509399
229.055975,406.375868
227.875969,410.963535
225.893259,414.164729
223.118687,416.972554
219.910202,418.814366
216.049279,419.960086
212.491907,419.089671
209.168770,416.337233
205.250773,415.364866
201.245444,415.600904
198.513252,413.055616
198.117208,410.456073
199.634276,402.748423
200.832437,399.084134
202.921018,393.690259
204.355710,389.922055
207.007226,388.203611
211.318531,387.773119
215.094218,388.332538
219.708898,390.358970"/>

<polyline fill="none" style="stroke:rgb(15.0%,57.49999999999997%,40.0%);stroke-width:0.5" points="
218.465400,389.038794
221.663061,391.523999
225.252572,393.396841
227.905802,396.390990
229.660076,400.040491
229.374786,404.063227
229.012164,408.096527
227.858261,411.966254
225.764726,415.445945
222.889414,418.278439
219.186603,419.884587
215.191502,420.534757
211.769280,418.879390
208.852417,416.185223
204.828532,416.425054
200.941725,416.086293
198.539792,413.041629
198.117208,410.456073
198.149072,404.824061
199.236129,400.947376
200.742641,397.174795
201.617766,393.210694
203.186256,389.489577
206.691981,387.543774
210.707849,386.968404
214.691111,387.620648
218.465400,389.038794"/>

<polyline fill="none" style="stroke:rgb(16.666666666666664%,58.3333333333333%,40.0%);stroke-width:0.5" points="
218.327107,389.304937
221.663061,391.523999
225.161109,393.515725
227.606972,396.591730
228.899637,400.212956
229.225101,404.053748
229.012164,408.096527
227.585687,411.840972
224.768780,414.494013
221.846599,416.774998
218.677353,418.064526
215.358284,418.503122
212.264360,418.057353
209.066370,417.706062
205.868380,417.354771
202.154392,416.310568
199.219272,412.807333
198.861994,404.924741
199.522078,401.038027
200.231219,397.424165
200.940360,393.810304
199.629241,390.119830
198.174385,386.550162
200.568750,383.649854
204.186712,384.214339
207.222885,386.638480
210.707849,386.968404
214.619289,387.880916
218.327107,389.304937"/>

<polyline fill="none" style="stroke:rgb(18.333333333333332%,59.166666666666636%,40.0%);stroke-width:0.5" points="
218.327107,389.304937
221.615184,391.600201
224.419263,394.341231
227.210835,396.861117
228.666560,400.270000
229.165111,404.054792
228.923979,408.078561
227.383936,411.711022
224.510791,414.162848
221.526490,416.267744
218.627774,417.891512
212.381478,418.498092
209.421821,415.787642
205.712344,416.202296
201.921269,416.593039
199.555105,413.462905
198.469992,409.572783
197.949990,405.567716
198.469795,401.562989
199.716161,397.720845
200.855572,393.850318
199.516690,390.150785
196.963434,387.015177
197.242845,383.471564
201.158367,382.740051
205.127784,382.635834
206.624014,386.292259
210.707849,386.968404
214.619289,387.880916
218.327107,389.304937"/>

<polyline fill="none" style="stroke:rgb(20.0%,59.999999999999964%,40.0%);stroke-width:0.5" points="
218.327107,389.304937
223.274889,392.153440
226.141226,394.874090
228.155038,398.292071
229.054460,402.137181
229.052984,406.110947
228.559980,410.023712
226.598618,413.443184
223.546413,415.918288
220.023742,417.729612
216.247569,418.915663
212.316696,418.753822
208.912135,416.771817
205.269595,417.892009
201.540065,416.921434
199.318070,413.720042
198.766382,409.527551
198.789644,405.587423
199.114805,401.702829
200.150663,397.837350
200.855572,393.850318
199.644547,390.413348
197.226841,386.958855
197.992993,384.014084
201.161282,382.769909
204.983817,382.898458
207.621734,385.093387
210.726518,386.880373
214.619289,387.880916
218.327107,389.304937"/>

<polyline fill="none" style="stroke:rgb(21.666666666666664%,60.83333333333329%,40.0%);stroke-width:0.5" points="
217.474627,388.920674
221.057102,390.673483
223.220813,392.225382
226.071192,394.930612
227.846505,398.409078
228.787039,402.174164
228.873449,406.098074
228.130197,409.890514
226.017370,415.268754
222.716882,417.452364
219.112460,419.174187
215.208939,420.044369
211.202024,420.017997
207.265847,419.277530
203.455164,418.038944
200.197737,415.873399
198.900553,412.145730
198.292484,408.213611
198.875755,404.254240
199.189494,400.268521
199.849154,396.313887
199.939436,392.309387
198.257936,388.744988
195.401726,385.940029
195.415390,382.601383
199.280654,382.625073
203.227823,382.560192
206.977768,383.226544
210.339864,385.386243
213.730816,387.522157
217.474627,388.920674"/>

<polyline fill="none" style="stroke:rgb(23.333333333333332%,61.66666666666663%,40.0%);stroke-width:0.5" points="
215.947537,387.731090
219.327381,389.805990
222.827948,391.681257
225.640751,394.465671
227.846505,398.409078
228.787039,402.174164
228.873449,406.098074
228.014962,409.857034
226.803312,413.378542
224.726482,416.709153
221.303311,418.654561
217.473113,419.700392
211.262319,419.511628
207.329100,418.984378
203.573540,417.796279
200.925577,415.344316
199.484122,412.006340
198.922266,408.198910
198.935377,404.260971
199.603750,400.336776
200.386788,396.364382
199.968822,392.303349
198.257936,388.744988
196.128121,385.656029
199.312001,383.224007
203.224221,382.739962
206.800375,381.606311
208.701822,384.930965
212.577626,385.632935
215.947537,387.731090"/>

<polyline fill="none" style="stroke:rgb(24.999999999999996%,62.49999999999996%,40.0%);stroke-width:0.5" points="
218.779045,387.268256
221.619817,390.022056
224.392699,392.844115
227.029725,395.777084
228.556160,399.383811
229.050716,403.299261
228.873449,406.098074
227.870964,409.815031
226.321515,413.134806
224.071363,416.049138
221.154175,418.327015
217.473113,419.700392
211.433509,420.035732
207.501774,419.722354
203.911395,418.100207
200.802026,415.713143
199.484122,412.006340
198.922266,408.198910
198.935377,404.260971
198.997805,400.143740
199.665882,396.242230
199.515945,392.352251
197.544639,388.994532
195.270942,385.823332
196.449831,382.486688
200.284989,382.529828
203.624675,381.115529
206.202859,378.415934
209.362049,380.221572
212.547427,382.503122
215.903823,384.549840
218.779045,387.268256"/>

<polyline fill="none" style="stroke:rgb(26.666666666666668%,63.333333333333286%,40.0%);stroke-width:0.5" points="
219.294816,387.760808
222.268645,390.421025
225.338753,392.966023
227.408974,396.337632
228.556160,399.383811
228.690774,403.304217
228.457988,406.036663
227.701377,409.754709
226.244786,413.087768
224.071363,416.049138
222.093033,418.079078
218.349237,419.451454
214.401635,420.014570
211.439112,419.855840
207.617932,419.225816
203.927046,418.074613
199.472487,415.379403
198.953699,411.467903
198.298962,407.526537
198.657598,403.561180
198.994449,399.591757
199.607709,395.641978
198.717642,392.233424
197.827574,388.824869
196.562933,385.561436
200.127799,381.889083
203.369089,380.709440
206.247631,378.893408
209.236819,380.426277
213.373409,382.418888
216.439899,384.965811
219.294816,387.760808"/>

<polyline fill="none" style="stroke:rgb(28.333333333333332%,64.16666666666661%,40.0%);stroke-width:0.5" points="
219.294816,387.760808
222.268645,390.421025
225.249322,393.046017
227.408974,396.337632
228.556160,399.383811
229.049910,405.214891
228.164616,409.157848
226.244786,413.087768
224.071363,416.049138
221.827115,417.679490
218.280835,419.190269
214.400465,419.984593
208.781865,419.608283
204.913463,418.448899
201.253617,416.741286
198.440855,414.153240
198.609827,410.833926
198.778799,407.514613
198.777236,403.570416
198.994449,399.591757
199.607709,395.641978
199.304645,392.110655
198.218235,388.671618
197.377376,385.764775
198.607495,383.063438
203.512789,381.039341
206.241653,380.182510
208.697987,381.498459
212.785291,383.464026
216.344709,385.081592
219.294816,387.760808"/>

<polyline fill="none" style="stroke:rgb(30.0%,64.99999999999994%,40.0%);stroke-width:0.5" points="
218.990108,388.091933
222.020979,390.722132
225.137181,393.145628
226.827063,395.074115
228.409803,399.416669
228.905786,402.680732
228.840509,405.199078
228.022497,409.109892
226.087618,414.126169
224.071363,416.049138
221.827115,417.679490
218.271876,419.161638
214.400465,419.984593
208.781865,419.608283
204.913463,418.448899
201.336152,416.616038
199.314248,413.755672
198.609827,410.833926
197.954317,404.839045
198.326001,400.896895
198.954484,396.977558
198.949945,393.003900
198.187129,389.175747
196.243520,385.742235
196.916469,382.061290
200.382332,380.370154
204.319511,379.943055
208.697987,381.498459
212.785291,383.464026
216.131906,385.371699
218.990108,388.091933"/>

<polyline fill="none" style="stroke:rgb(31.666666666666664%,65.83333333333327%,40.0%);stroke-width:0.5" points="
218.909599,388.180917
221.845229,390.927060
224.705856,393.604818
227.650589,399.595265
228.156824,402.719567
227.588441,408.991341
225.342242,413.621820
223.759234,415.725700
221.707228,417.471588
218.262926,419.133004
214.400465,419.984593
208.095459,419.793699
204.473099,418.309528
200.877287,416.719721
198.378299,413.863422
197.950697,409.970818
197.949837,406.030462
198.232430,402.113710
198.901656,398.230602
198.647290,394.319239
197.050738,390.739240
195.076531,387.329122
193.695462,383.708174
196.372801,381.211288
200.156509,380.155621
203.886368,379.004656
207.612841,379.969603
212.512681,383.998498
215.824137,385.815258
218.909599,388.180917"/>

<polyline fill="none" style="stroke:rgb(33.33333333333333%,66.6666666666666%,40.0%);stroke-width:0.5" points="
219.868761,387.324683
222.707506,390.156593
225.543813,392.991614
227.863254,396.248609
229.006390,400.068729
229.552611,404.040642
229.197467,408.018621
227.526279,411.641978
224.936881,414.693221
221.918494,417.329584
218.262926,419.133004
214.400465,419.984593
210.421860,419.876404
204.761094,417.716006
201.973339,415.489999
200.317415,413.149802
199.804572,409.822629
199.779503,406.060204
199.758261,402.215115
199.771207,398.255750
199.771359,394.141390
198.773320,389.891422
196.251755,386.667383
194.259135,383.738462
196.194517,380.250774
199.597596,378.128932
203.388318,376.994437
207.331908,377.623245
210.155945,380.434013
213.326085,382.791293
216.845640,384.699469
219.868761,387.324683"/>

<polyline fill="none" style="stroke:rgb(35.0%,67.49999999999994%,40.0%);stroke-width:0.5" points="
219.408930,387.798047
222.174051,390.683772
224.910653,393.543556
227.015621,396.630757
228.122790,400.239171
228.503022,404.027521
228.022226,407.657797
226.577979,411.065190
224.497907,414.284390
221.504708,416.740508
218.126627,418.800054
214.400465,419.984593
210.455160,419.699516
205.978047,418.223417
202.158431,416.874533
199.352762,414.135685
198.957121,410.131291
198.958138,406.080143
198.953497,402.028997
198.850760,397.985683
197.494533,394.233350
195.214111,390.892253
193.312677,387.330853
191.444014,383.755796
193.145589,380.564000
196.790870,378.821892
199.597596,378.128932
203.413301,377.803880
206.835719,378.682527
209.917323,380.703545
213.102600,383.146891
216.435823,385.291457
219.408930,387.798047"/>

<polyline fill="none" style="stroke:rgb(36.666666666666664%,68.33333333333327%,40.0%);stroke-width:0.5" points="
219.408930,387.798047
223.429276,391.480930
225.923600,394.556253
227.703673,398.079169
228.233044,404.024165
227.790642,407.594801
226.524987,411.037051
224.408330,414.204540
222.390789,416.223350
218.090100,418.717806
214.366893,419.716691
211.272221,419.982610
207.431517,418.999916
203.698470,417.640129
199.871887,413.900454
198.957121,410.131291
198.951080,403.721716
198.847856,399.757081
197.606890,396.013022
195.741280,392.513181
194.036618,388.938149
191.725518,385.731716
190.965460,381.886301
192.555352,378.496253
196.426192,377.945305
200.399742,377.948664
203.413301,377.803880
208.183865,378.958075
211.084417,381.636214
214.365510,383.834326
216.400099,385.339662
219.408930,387.798047"/>

<polyline fill="none" style="stroke:rgb(38.33333333333333%,69.1666666666666%,40.0%);stroke-width:0.5" points="
218.821730,386.285403
221.691888,389.132641
224.161870,392.320130
226.789415,395.393499
227.703673,398.079169
228.712400,403.176306
228.245146,407.169244
227.159975,411.048151
225.391761,414.613538
222.065188,416.888323
218.480522,418.735054
214.366893,419.716691
211.272221,419.982610
206.635356,419.067084
202.932575,417.457673
200.124666,414.727166
198.957121,410.131291
198.952369,406.785422
198.959491,402.740087
198.311978,398.778914
196.379219,395.246722
194.233639,391.819667
192.518644,388.214860
190.560312,384.720526
190.540417,380.754179
192.645756,378.615943
196.426192,377.945305
200.399742,377.948664
203.413301,377.803880
209.362423,378.972530
212.230471,381.756117
215.777378,383.634860
218.821730,386.285403"/>

<polyline fill="none" style="stroke:rgb(40.0%,69.99999999999993%,40.0%);stroke-width:0.5" points="
218.470551,386.655216
221.339965,389.458981
224.161870,392.320130
226.657764,395.465353
227.703673,398.079169
228.232604,403.189764
228.098315,407.138608
226.857226,410.917196
224.851049,414.138158
222.065188,416.888323
218.905007,418.799342
215.106945,419.813853
211.169238,420.043722
207.275252,419.510354
202.932575,417.457673
200.427507,415.639160
198.807625,412.123551
198.288074,408.212523
198.828531,404.302324
198.957693,400.356893
197.849197,396.649110
195.300352,393.630152
193.226074,390.266601
191.230549,386.849372
189.311706,383.389822
188.381676,379.612611
190.968174,377.046585
194.845760,376.263508
198.775515,375.941567
202.732723,375.953726
206.689921,375.966666
209.377467,378.546535
212.462181,381.009801
215.615123,383.850512
218.470551,386.655216"/>

<polyline fill="none" style="stroke:rgb(41.666666666666664%,70.83333333333326%,40.0%);stroke-width:0.5" points="
220.112362,387.547027
224.161870,392.320130
226.579830,395.510366
227.616250,398.100553
228.052806,400.932917
227.950438,407.113474
226.857226,410.917196
223.937997,415.742868
218.835531,418.633293
215.092450,419.725028
211.169238,420.043722
207.329722,419.338813
203.102954,417.175063
200.916599,415.242068
198.980623,412.073838
198.401554,409.256122
198.251443,405.311402
198.925274,401.376670
197.294794,397.807969
194.456389,395.003391
191.618199,392.199651
188.852820,389.321358
186.028903,386.502876
183.440258,383.505035
181.700191,380.245169
185.341478,378.991397
189.260328,378.403483
194.845760,376.263508
198.776081,376.121493
202.738790,376.193598
206.516984,376.446272
210.828202,380.167508
214.153048,382.302874
217.307228,384.709801
220.112362,387.547027"/>

<polyline fill="none" style="stroke:rgb(43.33333333333333%,71.66666666666659%,40.0%);stroke-width:0.5" points="
219.125089,388.510975
223.984878,392.481830
226.294023,395.675318
227.241127,398.207209
227.903229,400.944142
228.046781,403.957161
227.950438,407.113474
226.857226,410.917196
223.623282,415.380888
218.688986,418.304506
215.001419,419.101817
211.195265,419.234194
207.425366,418.992035
202.161314,416.865532
199.669388,413.894859
198.699564,409.221637
198.251443,405.311402
198.148390,401.441706
198.015418,398.252047
198.551600,394.358689
196.449613,391.254994
193.198590,389.061520
189.925199,386.925191
186.651372,384.795598
183.160228,382.972303
180.966407,380.090050
183.734184,377.580344
187.498412,376.424381
191.406031,376.617683
194.899239,376.709649
198.779641,376.751482
202.720244,376.763278
206.309803,377.103228
210.669537,380.347000
213.048483,383.684849
216.100048,386.201765
219.125089,388.510975"/>

<polyline fill="none" style="stroke:rgb(44.99999999999999%,72.49999999999991%,40.0%);stroke-width:0.5" points="
218.674225,386.088508
221.133976,389.277259
224.177044,391.904894
226.661626,395.013960
227.735697,398.898913
228.050771,402.917666
227.802531,407.088548
226.748892,410.865593
224.693457,414.338450
221.662954,417.011670
218.145020,418.889560
214.168413,419.627143
210.179784,419.777302
206.271474,418.793061
202.234711,416.770654
199.997992,413.748112
198.967012,409.184870
198.760658,405.283678
198.385545,401.409463
197.148407,398.446129
194.918529,396.227844
193.109720,394.402740
190.693544,391.876720
188.171511,388.753873
186.093297,385.414268
184.360093,382.428992
185.462874,379.534915
191.476162,378.595002
194.987977,378.175366
198.814112,377.650507
202.724633,377.242925
205.742171,377.038579
209.370719,378.465916
212.486962,380.955595
215.800727,383.244473
218.674225,386.088508"/>

<polyline fill="none" style="stroke:rgb(46.666666666666664%,73.33333333333326%,40.0%);stroke-width:0.5" points="
218.674225,386.088508
221.155830,389.256706
224.155599,391.925873
226.234326,395.232625
227.735697,398.898913
228.045575,401.990611
227.447824,407.027060
226.502530,410.755171
224.447802,414.118291
221.441680,416.690522
218.095307,418.748038
214.743392,419.711016
210.231258,419.360501
206.332300,418.623656
202.881154,417.342573
200.041921,414.596650
198.423960,410.891778
197.944241,406.892091
197.954043,402.838116
197.057537,398.901737
195.167722,396.012086
193.855290,393.800374
192.093955,390.848054
190.021464,387.473230
187.841229,384.362740
186.339083,382.123645
188.150837,378.593090
192.095726,377.953856
196.149712,377.950472
198.826778,377.769825
202.738790,377.392251
205.687646,377.394426
209.370719,378.465916
211.609745,380.034458
214.906179,382.371217
218.674225,386.088508"/>

<polyline fill="none" style="stroke:rgb(48.33333333333333%,74.16666666666659%,40.0%);stroke-width:0.5" points="
218.958694,385.367772
221.547930,388.400290
224.051889,391.506580
226.459961,394.682120
228.029160,398.313448
228.050854,402.307127
227.992223,406.296642
226.827721,410.084481
224.357152,414.039668
221.441680,416.690522
217.957297,418.383563
214.671691,419.115392
210.268956,419.093153
206.427569,418.307754
203.174877,416.854226
200.747204,414.087456
199.138020,410.663419
198.123531,406.876606
197.954043,402.838116
197.751427,398.721669
197.078342,395.160097
195.972809,392.608499
194.288432,389.609842
192.150673,386.071355
190.525612,383.423031
190.440634,380.426627
196.149712,377.950472
198.826778,377.769825
202.748221,377.541942
205.798418,377.271187
209.379054,378.506291
212.514832,380.873958
216.061411,382.625109
218.958694,385.367772"/>

<polyline fill="none" style="stroke:rgb(49.99999999999999%,74.99999999999991%,40.0%);stroke-width:0.5" points="
218.529097,385.827807
221.180791,388.709487
223.673752,391.802236
225.842997,395.053186
227.333518,398.497500
228.050854,402.307127
227.784760,406.264100
226.581233,409.974294
223.989552,413.731010
220.938914,415.908243
217.613513,417.455249
214.565530,418.403494
210.305636,418.735026
206.480232,418.135641
203.192640,416.830050
201.095783,414.927230
198.967966,411.511330
198.006905,407.605121
197.949360,403.561070
197.302708,399.568069
196.938665,395.550409
195.820520,391.692561
193.214677,388.600391
191.279889,385.057565
190.362597,381.217918
192.980119,378.486504
196.149712,377.950472
198.826778,377.769825
202.761456,377.781557
205.673617,377.949191
209.016988,379.128235
211.905933,381.801862
215.386327,383.653030
218.529097,385.827807"/>

<polyline fill="none" style="stroke:rgb(51.66666666666666%,75.83333333333324%,40.0%);stroke-width:0.5" points="
218.110049,386.298177
220.823907,389.030409
223.577719,391.874183
225.871300,394.978300
227.333518,398.497500
228.050854,402.307127
228.045550,406.485294
226.863142,410.241378
224.352426,413.290828
221.430596,415.948122
217.860167,417.586726
214.524373,418.167067
210.321249,418.225277
206.529541,417.931568
203.442771,416.420390
201.618666,414.524853
199.921647,411.150459
198.770996,407.452136
197.949360,403.561070
197.302708,399.568069
196.850233,395.567135
195.431968,391.919286
193.214677,388.600391
191.624873,384.956582
192.003050,381.790673
193.452564,379.322056
196.204778,378.245043
198.829797,377.859774
202.761456,377.781557
205.661692,378.007993
209.016988,379.128235
211.905933,381.801862
215.078169,384.132480
218.110049,386.298177"/>

<polyline fill="none" style="stroke:rgb(53.333333333333336%,76.66666666666657%,40.0%);stroke-width:0.5" points="
217.967998,385.629165
220.823907,389.030409
223.388768,392.022002
225.307954,395.321838
227.357756,398.426249
228.051460,402.306301
227.956812,406.470349
226.467992,410.026072
224.286867,413.229172
221.184871,415.571142
217.607690,416.722894
214.425229,417.121760
210.343642,417.235561
206.831577,416.739346
204.080297,415.548643
200.388511,410.945465
199.264072,407.321849
198.272590,403.494699
197.510498,399.537710
196.436853,394.948152
194.568033,391.425853
192.661769,387.920694
190.297383,384.719950
189.310097,381.078097
192.364124,379.022588
196.311380,378.773998
198.884508,378.366765
202.759724,377.901533
205.637067,378.125437
208.940111,379.257037
211.463859,381.081012
214.551094,383.597454
217.967998,385.629165"/>

<polyline fill="none" style="stroke:rgb(55.00000000000001%,77.4999999999999%,40.0%);stroke-width:0.5" points="
221.884160,389.554538
224.395637,392.682792
226.364641,396.179329
226.943053,402.295347
226.100424,405.983293
224.803694,409.130416
223.013511,412.043412
220.573966,414.503919
217.388822,415.975059
214.373591,416.674877
210.361455,416.876005
206.962397,416.277517
204.308760,415.232630
201.788360,413.411156
199.651233,410.030902
198.235457,406.259829
196.953288,402.441176
195.500470,398.685644
193.907688,394.993824
191.744238,391.629503
189.746157,388.148977
187.702341,384.677235
186.364617,380.971464
189.270648,378.757056
193.232384,378.028626
197.254626,377.950930
201.283734,377.953451
205.535253,378.532719
208.678999,379.797104
211.304812,381.299145
215.941972,384.166957
221.884160,389.554538"/>

<polyline fill="none" style="stroke:rgb(56.66666666666668%,78.33333333333323%,40.0%);stroke-width:0.5" points="
218.469443,387.305019
221.195569,390.179573
223.720040,393.129553
225.621113,396.415041
226.223730,402.266216
225.758055,405.872025
224.418797,408.898281
222.248201,411.370001
219.750131,413.359827
216.927518,414.674469
214.174282,415.522170
210.397454,416.096861
207.055057,415.960809
204.561052,414.755223
202.417263,412.854561
200.208234,409.736686
198.235457,406.259829
197.047204,403.881289
195.512717,400.124758
193.273436,396.761682
190.714879,393.638014
188.776687,390.070367
186.952058,386.447888
186.143103,382.509120
188.180988,379.375916
193.279233,378.746912
197.259062,378.760916
201.248603,378.762592
205.406874,379.026295
208.613967,379.932274
211.304812,381.299145
215.743318,384.430465
218.469443,387.305019"/>

<polyline fill="none" style="stroke:rgb(58.33333333333335%,79.16666666666656%,40.0%);stroke-width:0.5" points="
218.649209,387.135776
221.195569,390.179573
223.473935,393.301107
225.284638,396.542481
226.776439,400.893645
226.958200,404.910821
225.646673,408.681441
222.936010,411.679991
219.622741,413.960505
215.776489,415.129521
211.825060,415.956826
207.248703,415.362026
204.889773,414.218055
202.887296,412.435077
200.612878,409.478495
198.579791,406.076707
197.340599,403.730648
195.200196,400.303298
193.001006,396.947709
191.072852,393.578421
188.308051,390.649387
186.541542,387.057687
186.544514,382.628800
188.473160,379.793336
193.283366,378.866807
197.234455,379.480363
201.224885,379.752285
205.277146,379.856195
208.475967,380.328770
211.077978,381.687771
215.608627,384.591560
218.649209,387.135776"/>

<polyline fill="none" style="stroke:rgb(60.00000000000002%,79.99999999999989%,40.0%);stroke-width:0.5" points="
217.994255,387.837401
220.860614,390.432896
222.939775,393.635095
224.768755,396.784723
226.153566,400.986100
225.979512,404.761707
224.691328,408.179439
222.555480,411.297545
219.455176,413.641998
215.776489,415.129521
211.825060,415.956826
206.934432,415.559197
203.356089,413.791760
200.853523,410.668206
198.634924,407.326001
195.897437,404.384311
193.060426,401.540704
190.588983,398.410057
188.401796,395.049892
186.100351,391.780285
185.102463,387.921770
185.655884,384.012154
188.675086,380.126839
191.418148,379.056137
197.224663,379.569829
201.214651,379.931988
205.140366,380.684015
207.967803,381.642937
210.413089,382.896856
214.923345,385.539861
217.994255,387.837401"/>

<polyline fill="none" style="stroke:rgb(61.66666666666669%,80.83333333333323%,40.0%);stroke-width:0.5" points="
217.994255,387.837401
220.607743,390.644918
222.631553,393.821094
224.220905,397.029386
225.079295,401.095071
224.643224,404.419581
223.305009,407.290954
221.055720,409.827796
218.451752,412.150750
215.354364,414.072520
211.727156,415.032351
207.032599,415.089811
203.356089,413.791760
199.485636,411.022175
196.597020,408.166248
193.750989,405.268489
190.846873,402.427074
188.119597,399.416955
185.582094,396.259145
183.622826,392.844963
184.505546,388.932559
186.388291,384.419230
189.541962,381.492745
197.147300,380.496602
201.136022,380.767941
205.067805,380.975095
207.967803,381.642937
210.398708,382.923184
214.906683,385.564809
217.994255,387.837401"/>

<polyline fill="none" style="stroke:rgb(63.333333333333364%,81.66666666666656%,40.0%);stroke-width:0.5" points="
217.765184,388.575431
220.061852,391.066659
222.396121,393.953273
224.050931,397.088621
225.079295,401.095071
224.643224,404.419581
223.254812,407.258087
221.034445,409.806645
218.328242,411.980923
215.222580,413.769977
211.719145,414.972888
207.090353,414.795488
203.624171,413.323213
199.891933,410.540696
196.960430,407.808437
194.156940,404.868369
191.628824,401.773569
189.528734,398.399586
187.518392,395.056051
186.391511,392.518273
186.454680,389.412511
188.222033,385.615722
190.349975,382.672217
193.753430,381.734333
197.156886,380.796448
201.136022,380.767941
205.032781,381.212523
207.866606,381.925344
210.398708,382.923184
214.630129,385.993294
217.765184,388.575431"/>

<polyline fill="none" style="stroke:rgb(65.00000000000003%,82.49999999999989%,40.0%);stroke-width:0.5" points="
217.250814,389.121254
219.552015,391.485645
221.568119,394.437770
222.958933,397.508664
224.066670,401.210069
224.027576,404.290524
223.204678,407.225131
219.372362,411.788364
215.942037,413.820987
212.153714,414.988213
207.103483,414.736942
204.330873,413.847522
201.053342,411.641915
197.726865,407.185271
195.756751,403.707514
193.552181,400.338768
191.124137,397.332919
189.422008,394.338537
189.367889,390.329377
190.920481,387.601572
192.798886,385.933140
197.719552,383.834050
201.173954,383.225186
204.755771,383.383834
207.478952,383.649560
214.291000,386.413455
217.250814,389.121254"/>

<polyline fill="none" style="stroke:rgb(66.66666666666671%,83.33333333333321%,40.0%);stroke-width:0.5" points="
217.209286,389.164550
220.596569,392.695909
222.706548,395.991488
224.360665,399.534060
225.042086,403.363523
224.387093,407.198656
222.188980,410.388557
219.042398,412.679905
215.508643,414.356875
212.153714,414.988213
207.214913,414.332773
204.743994,413.048007
202.040704,410.635365
199.094046,406.316341
197.063987,402.912509
194.881150,399.412464
192.918892,396.373441
192.046513,393.707608
192.399573,391.183259
194.389632,387.998022
198.349139,385.931592
201.408805,385.220533
204.716482,384.822898
207.300914,384.773704
210.576530,385.933974
213.852145,387.094244
217.209286,389.164550"/>

<polyline fill="none" style="stroke:rgb(68.33333333333339%,84.16666666666654%,40.0%);stroke-width:0.5" points="
216.696344,389.902884
220.319630,392.925831
222.470874,396.123230
223.815494,399.700430
223.845389,403.289210
223.086811,406.738204
221.595263,409.794426
218.744708,412.193836
215.432386,414.129317
212.241863,415.083643
208.275537,415.191797
204.456224,413.913661
201.221459,411.604646
199.061066,408.203341
196.817250,404.854873
194.603235,401.515139
192.720238,397.960443
190.710612,394.471182
190.071201,390.548736
191.758913,387.043450
195.399813,385.432296
199.393355,384.945797
203.428928,384.950279
207.195074,385.394745
210.492444,386.190505
213.391202,387.900823
216.696344,389.902884"/>

<polyline fill="none" style="stroke:rgb(70.00000000000006%,84.99999999999987%,40.0%);stroke-width:0.5" points="
216.296857,390.428127
219.465910,393.634508
221.330231,396.725581
222.713344,399.986006
223.126686,403.254632
222.602231,406.579318
221.150992,409.437370
218.622655,412.022949
215.396970,414.046580
212.232543,415.024373
208.298563,415.043577
204.828630,414.140761
201.477334,412.159535
198.804484,409.274794
196.520977,406.083914
194.528839,402.689945
192.169928,399.555235
190.278180,396.118894
188.610805,392.567399
188.148776,388.725006
190.624882,386.076386
195.459652,385.695441
199.425833,385.304253
203.427289,384.980235
207.157398,385.601337
210.421789,386.356036
213.314122,388.029503
216.296857,390.428127"/>

<polyline fill="none" style="stroke:rgb(71.66666666666673%,85.8333333333332%,40.0%);stroke-width:0.5" points="
215.848968,390.991228
219.252277,393.799616
221.249965,396.766293
222.655376,400.001483
223.126686,403.254632
222.602231,406.579318
221.150992,409.437370
216.801463,413.649010
213.172336,415.447261
209.124372,415.602420
205.232659,414.419410
201.607918,412.565695
198.625696,409.894763
196.980324,405.800077
194.998694,402.425156
193.777115,398.919305
194.223605,395.614735
195.579323,392.265328
197.459118,389.995281
200.093666,388.191085
203.458347,387.259217
206.872957,387.408163
209.660276,388.345242
212.523764,389.474561
215.848968,390.991228"/>

<polyline fill="none" style="stroke:rgb(73.3333333333334%,86.66666666666654%,40.0%);stroke-width:0.5" points="
215.848968,390.991228
218.433637,392.420884
221.358828,395.078289
223.331202,398.514521
224.541324,402.296516
224.508162,406.246448
222.732634,409.762519
219.639078,412.212415
216.204689,414.209449
213.081761,415.067940
209.198150,414.976783
205.545901,413.672458
201.968776,411.978075
199.380906,409.352093
197.387004,405.607473
196.326002,401.954955
196.173752,398.863712
196.531626,396.270560
197.620333,393.343301
200.645503,389.389999
203.622286,388.265548
206.830884,387.855385
211.471747,388.639063
215.848968,390.991228"/>

<polyline fill="none" style="stroke:rgb(75.00000000000007%,87.49999999999987%,40.0%);stroke-width:0.5" points="
215.578578,391.458563
217.981775,393.056666
221.083743,395.310441
223.249037,398.551247
224.185180,402.349048
223.804679,406.093975
222.291317,409.452418
219.338833,412.886680
216.204689,414.209449
213.074363,415.008398
207.888770,414.969541
204.144914,413.822112
200.990766,411.494549
199.380906,409.352093
197.526100,405.551330
196.890482,401.876385
197.040482,398.936297
199.375554,394.593496
202.422686,391.730894
206.941878,389.920765
211.120565,389.879855
215.578578,391.458563"/>

<polyline fill="none" style="stroke:rgb(76.66666666666674%,88.3333333333332%,40.0%);stroke-width:0.5" points="
214.225650,390.414953
217.749000,392.216772
220.625055,394.968038
223.138429,398.597745
224.005410,402.357507
223.631259,406.045771
221.933943,409.231827
219.085843,412.551461
216.195396,414.180924
213.070807,414.978609
207.627332,415.043873
203.737442,414.344994
200.741288,411.882937
199.406397,409.336275
197.667942,405.502588
196.950368,401.872686
197.300277,399.009821
199.703419,394.855933
202.991254,390.725901
206.338501,389.635949
211.120565,389.879855
214.225650,390.414953"/>

<polyline fill="none" style="stroke:rgb(78.33333333333341%,89.16666666666653%,40.0%);stroke-width:0.5" points="
213.869532,391.434496
217.204527,393.007396
220.088025,395.401071
222.190332,398.972896
223.107261,402.414980
223.223364,405.946942
222.183216,409.869457
219.394438,412.792534
215.874601,414.883655
211.965136,416.024403
207.869787,416.045718
203.942011,414.959454
200.487927,412.783583
198.704049,409.163251
197.190582,405.356233
197.370185,401.875791
197.819219,399.158327
200.017938,395.086374
203.680740,391.707750
206.544334,390.909210
211.041438,390.746159
213.869532,391.434496"/>

<polyline fill="none" style="stroke:rgb(80.00000000000009%,89.99999999999986%,40.0%);stroke-width:0.5" points="
216.194383,391.466600
219.355636,393.766908
222.393950,396.262758
224.134128,399.706391
224.852067,403.582636
224.908181,407.496457
223.365568,411.037231
220.067739,413.082393
215.874601,414.883655
212.726871,415.865836
207.896293,415.867694
204.040641,414.740661
200.763874,412.552556
198.814332,409.115970
197.875257,405.272960
197.788955,401.906512
197.819219,399.158327
198.634957,394.592714
200.921097,391.465254
204.540269,390.099411
208.406110,390.648953
211.041438,390.746159
216.194383,391.466600"/>

<polyline fill="none" style="stroke:rgb(81.66666666666676%,90.83333333333319%,40.0%);stroke-width:0.5" points="
214.810204,390.263453
218.176222,392.515896
221.291744,395.110177
223.881581,398.198831
225.016164,402.087048
224.500719,407.395373
222.913536,410.642697
220.626900,412.889431
217.391301,415.345599
213.667031,416.964879
209.696226,417.708260
205.812169,416.617404
201.981106,415.231178
198.738466,412.878686
196.952411,409.242756
195.979778,405.309057
195.978280,401.234830
196.436188,397.209926
197.789782,393.367526
198.912195,389.462380
200.624507,385.823358
204.280980,384.654686
208.248548,385.517418
211.489847,387.930428
214.810204,390.263453"/>

<polyline fill="none" style="stroke:rgb(83.33333333333343%,91.66666666666652%,40.0%);stroke-width:0.5" points="
216.340309,389.522567
219.828195,391.514636
222.384854,394.646161
224.384517,398.155866
225.036143,402.131535
225.035045,406.191660
224.219852,410.137615
221.426923,412.984001
217.893917,414.970992
214.656453,417.399375
210.749441,418.453342
206.722690,418.616152
202.895285,417.328627
199.850523,414.770089
197.589435,411.467097
196.057084,407.736218
195.964039,399.617919
196.465654,395.616418
197.849003,391.799216
199.178583,387.963462
201.348235,384.645933
205.257959,384.620022
208.199324,385.626857
212.497314,388.217472
216.340309,389.522567"/>

<polyline fill="none" style="stroke:rgb(85.0000000000001%,92.49999999999984%,40.0%);stroke-width:0.5" points="
216.328348,389.550080
219.346764,392.089715
222.335446,394.680202
224.327178,397.436394
225.443846,401.310862
225.920838,405.299248
225.099163,409.251354
223.635283,413.008048
220.818299,415.817785
217.028223,417.153905
213.229421,418.546099
209.243752,419.061168
205.213486,418.828019
201.425763,417.580026
198.820788,414.533729
196.820379,411.021979
195.571859,407.178343
194.975544,403.182657
194.959197,399.136818
194.942374,395.090985
195.068069,391.056833
197.066074,387.695350
200.512718,385.611923
205.198003,384.944489
208.150677,385.736534
212.510033,388.190302
216.328348,389.550080"/>

<polyline fill="none" style="stroke:rgb(86.66666666666677%,93.33333333333317%,40.0%);stroke-width:0.5" points="
215.967526,390.173141
218.966456,392.514209
221.341963,395.452709
222.826018,398.120549
224.023997,401.546554
224.212980,405.214007
223.627461,408.834801
221.824768,411.776079
219.580221,414.200723
216.678243,416.358219
213.077190,417.996912
209.235907,418.671268
205.392892,418.100236
202.155328,416.553064
199.402213,414.109109
197.176700,410.863438
195.688762,407.151261
194.975544,403.182657
194.392019,399.805475
192.763220,396.120614
190.895871,392.562054
190.993956,389.257153
194.826867,388.089481
200.767347,386.412205
205.177116,385.813995
208.017312,386.102894
212.510033,388.190302
215.967526,390.173141"/>

<polyline fill="none" style="stroke:rgb(88.33333333333344%,94.16666666666652%,40.0%);stroke-width:0.5" points="
215.496101,390.831657
218.310029,393.214528
220.623752,395.943686
222.026422,398.463249
223.045587,401.694117
223.194844,405.152960
222.795477,408.583752
221.476156,411.542395
219.457925,414.068666
216.647688,416.306583
209.235706,418.641268
205.392892,418.100236
200.305272,415.619058
198.127549,412.368468
196.159749,408.964583
194.272308,405.516851
191.846645,402.446814
189.092346,399.644275
186.402425,396.778156
183.864980,393.811557
182.759802,390.506011
186.145193,388.800952
190.008219,388.072619
193.928966,387.935825
197.407441,387.483374
200.885916,387.030924
205.184901,386.773954
207.770475,387.153996
212.285250,388.648032
215.496101,390.831657"/>

<polyline fill="none" style="stroke:rgb(90.00000000000011%,94.99999999999984%,40.0%);stroke-width:0.5" points="
215.406040,390.951609
218.267697,393.257047
220.352358,396.131424
221.669774,398.621032
222.750359,401.747404
223.075011,405.146858
222.455217,408.467321
220.788087,411.115019
218.890784,413.533389
216.306976,415.706685
212.761742,417.054362
209.216507,418.402038
203.027708,417.123416
200.383075,415.527706
196.882874,412.131283
194.857538,408.705114
192.240580,405.708280
189.372085,402.947206
186.566174,400.125562
183.763348,397.299655
180.872073,394.576965
177.797096,392.071303
177.209471,388.565501
180.432406,386.423422
184.360027,385.943056
188.341925,385.944794
192.260930,386.614391
196.084083,387.653109
200.927337,387.749553
205.152401,387.763397
207.659308,387.803886
212.071425,389.077764
215.406040,390.951609"/>

<polyline fill="none" style="stroke:rgb(91.66666666666679%,95.83333333333317%,40.0%);stroke-width:0.5" points="
215.355339,391.025968
218.224300,393.298480
220.071041,396.303928
221.451753,398.721298
222.662428,401.766594
223.039743,404.243347
222.182878,408.342155
220.303601,410.761138
218.403880,413.087986
216.025354,415.245973
212.751070,417.026324
209.185679,418.013258
206.297548,418.048387
202.489481,417.128730
199.179315,415.035505
196.619937,412.079300
194.334594,408.876208
191.503738,406.096422
188.706796,403.284019
185.961945,400.418064
183.094645,397.686788
179.660436,395.733474
176.464955,393.678260
178.422117,389.420283
181.044570,387.824757
184.389476,386.211288
188.341925,385.944794
192.260930,386.614391
196.084083,387.653109
200.927337,387.749553
205.152401,387.763397
207.659308,387.803886
212.059996,389.105502
215.355339,391.025968"/>

<polyline fill="none" style="stroke:rgb(93.33333333333346%,96.6666666666665%,40.0%);stroke-width:0.5" points="
215.270922,391.149960
218.224300,393.298480
220.491448,396.618724
222.197017,400.151320
223.039743,404.243347
221.781072,408.139848
220.136833,410.633549
218.338197,413.026462
215.990614,415.197054
212.751070,417.026324
209.185679,418.013258
206.297548,418.048387
202.489481,417.128730
199.168622,415.513408
196.348507,412.768643
193.100004,410.581667
189.907512,408.298430
187.039401,405.605618
183.878783,403.302957
180.671668,401.076915
178.601729,397.778080
179.149168,393.765765
181.177308,391.961886
185.296041,388.590382
188.432566,387.167935
192.230276,386.791637
196.084083,387.653109
200.926971,387.779550
205.152401,387.763397
207.659308,387.803886
212.023602,389.187810
215.270922,391.149960"/>

<polyline fill="none" style="stroke:rgb(95.00000000000013%,97.49999999999983%,40.0%);stroke-width:0.5" points="
214.899418,391.658397
217.438192,393.993628
219.415440,397.214508
220.829749,400.602838
221.121259,404.183454
220.339274,407.547075
219.123129,409.936936
217.486244,412.268999
215.392573,414.486089
212.646284,416.810659
209.181568,417.983541
206.297548,418.048387
200.316642,416.828186
197.342931,414.297921
194.503287,411.602866
191.103616,409.605228
187.692268,407.627658
184.207125,405.788540
181.270347,403.211374
178.747250,400.183729
176.646135,396.893073
177.395446,393.337903
180.695226,391.222776
184.109663,389.250462
187.627037,387.497591
192.224148,386.881425
196.084083,387.653109
200.926971,387.779550
205.148292,387.943335
211.715992,389.838742
214.899418,391.658397"/>

<polyline fill="none" style="stroke:rgb(96.6666666666668%,98.33333333333316%,40.0%);stroke-width:0.5" points="
214.699479,391.957591
216.958005,394.352939
218.688961,397.572663
219.830923,400.808040
220.192784,404.130661
219.993832,407.447271
219.071617,409.906175
215.838050,414.631596
212.552154,416.937755
208.782664,418.354973
204.762938,418.450440
200.828393,417.601563
197.573058,415.371980
194.330919,413.060079
190.808710,411.204293
187.820536,408.501522
184.404254,406.381730
180.755525,404.699748
177.627527,402.206890
175.041851,399.125358
174.345073,395.256866
177.473907,392.985890
180.770787,391.352331
184.223705,389.461635
187.822625,388.127932
192.217334,387.781283
196.072341,387.772522
200.924853,387.839511
205.036420,388.563274
208.257184,389.492643
211.477948,390.422012
214.699479,391.957591"/>

<polyline fill="none" style="stroke:rgb(98.33333333333347%,99.16666666666649%,40.0%);stroke-width:0.5" points="
214.354181,392.448210
216.583401,394.652638
218.606987,397.609802
219.772422,400.821364
220.192784,404.130661
219.935182,407.434625
219.071617,409.906175
215.598632,414.363186
212.239755,416.322571
208.675174,417.764709
204.794050,418.152066
200.926762,417.382668
197.573058,415.371980
194.346673,413.034548
190.965137,410.984229
187.820536,408.501522
184.541938,406.149610
181.359156,403.732681
178.058637,401.707746
175.221639,399.478528
174.114157,395.816087
176.189329,392.642478
179.956188,391.387044
184.310990,389.652636
187.835399,388.186555
192.217334,387.781283
196.072341,387.772522
200.901835,388.048231
204.911097,389.026483
208.092995,390.069738
211.243149,391.006554
214.354181,392.448210"/>

<line x1="169.0" y1="370.0" x2="169.0" y2="366.0" style="stroke:rgb(100.0%,100.0%,100.0%);stroke-width:1.0"/>
<line x1="184.0" y1="370.0" x2="184.0" y2="366.0" style="stroke:rgb(100.0%,100.0%,100.0%);stroke-width:1.0"/>
<line x1="169.0" y1="368.0" x2="184.0" y2="368.0" style="stroke:rgb(100.0%,100.0%,100.0%);stroke-width:1.0"/>

<text x="168.5" y="366.0" style="font-family: Courier;font-size: 6.0;fill: rgb(100.0%,100.0%,100.0%);letter-spacing: 0.0;text-anchor: start">15&#x3BC;m</text>
</svg>
